<mxfile host="Electron" modified="2024-04-09T16:33:24.116Z" agent="Mozilla/5.0 (Windows NT 10.0; Win64; x64) AppleWebKit/537.36 (KHTML, like Gecko) draw.io/24.1.0 Chrome/120.0.6099.109 Electron/28.1.0 Safari/537.36" etag="KlYe4QbdsjsqdiopTAh6" version="24.1.0" type="device">
  <diagram id="prtHgNgQTEPvFCAcTncT" name="Page-1">
    <mxGraphModel dx="1180" dy="2088" grid="1" gridSize="10" guides="1" tooltips="1" connect="1" arrows="1" fold="1" page="1" pageScale="1" pageWidth="827" pageHeight="1169" math="0" shadow="0">
      <root>
        <mxCell id="0" />
        <mxCell id="1" parent="0" />
        <mxCell id="dNxyNK7c78bLwvsdeMH5-19" value="Pool" style="swimlane;html=1;childLayout=stackLayout;resizeParent=1;resizeParentMax=0;horizontal=0;startSize=20;horizontalStack=0;" parent="1" vertex="1">
          <mxGeometry x="19" y="10" width="790" height="5100" as="geometry" />
        </mxCell>
        <mxCell id="dNxyNK7c78bLwvsdeMH5-20" value="Элементы" style="swimlane;html=1;startSize=31;horizontal=0;" parent="dNxyNK7c78bLwvsdeMH5-19" vertex="1">
          <mxGeometry x="20" width="770" height="120" as="geometry" />
        </mxCell>
        <mxCell id="VmHKf9ybYTrdxQRz-RQ7-4" value="МК стенда" style="rounded=0;whiteSpace=wrap;html=1;" vertex="1" parent="dNxyNK7c78bLwvsdeMH5-20">
          <mxGeometry x="50" y="45" width="110" height="30" as="geometry" />
        </mxCell>
        <mxCell id="VmHKf9ybYTrdxQRz-RQ7-5" value="RPI" style="rounded=0;whiteSpace=wrap;html=1;" vertex="1" parent="dNxyNK7c78bLwvsdeMH5-20">
          <mxGeometry x="230" y="45" width="110" height="30" as="geometry" />
        </mxCell>
        <mxCell id="VmHKf9ybYTrdxQRz-RQ7-6" value="CMCU" style="rounded=0;whiteSpace=wrap;html=1;" vertex="1" parent="dNxyNK7c78bLwvsdeMH5-20">
          <mxGeometry x="430" y="45" width="110" height="30" as="geometry" />
        </mxCell>
        <mxCell id="VmHKf9ybYTrdxQRz-RQ7-7" value="NIBP" style="rounded=0;whiteSpace=wrap;html=1;" vertex="1" parent="dNxyNK7c78bLwvsdeMH5-20">
          <mxGeometry x="620" y="45" width="110" height="30" as="geometry" />
        </mxCell>
        <mxCell id="dNxyNK7c78bLwvsdeMH5-21" value="Начало работы" style="swimlane;html=1;startSize=31;horizontal=0;" parent="dNxyNK7c78bLwvsdeMH5-19" vertex="1">
          <mxGeometry x="20" y="120" width="770" height="120" as="geometry" />
        </mxCell>
        <mxCell id="VmHKf9ybYTrdxQRz-RQ7-15" value="Включение" style="shape=process;whiteSpace=wrap;html=1;backgroundOutline=1;" vertex="1" parent="dNxyNK7c78bLwvsdeMH5-21">
          <mxGeometry x="45" y="45" width="120" height="30" as="geometry" />
        </mxCell>
        <mxCell id="VmHKf9ybYTrdxQRz-RQ7-16" value="Включение" style="shape=process;whiteSpace=wrap;html=1;backgroundOutline=1;" vertex="1" parent="dNxyNK7c78bLwvsdeMH5-21">
          <mxGeometry x="225" y="45" width="120" height="30" as="geometry" />
        </mxCell>
        <mxCell id="dNxyNK7c78bLwvsdeMH5-22" value="Работа с GUI" style="swimlane;html=1;startSize=31;horizontal=0;" parent="dNxyNK7c78bLwvsdeMH5-19" vertex="1">
          <mxGeometry x="20" y="240" width="770" height="140" as="geometry" />
        </mxCell>
        <mxCell id="VmHKf9ybYTrdxQRz-RQ7-30" value="Вывод GUI на монитор" style="shape=process;whiteSpace=wrap;html=1;backgroundOutline=1;" vertex="1" parent="dNxyNK7c78bLwvsdeMH5-22">
          <mxGeometry x="225" y="20" width="120" height="30" as="geometry" />
        </mxCell>
        <mxCell id="VmHKf9ybYTrdxQRz-RQ7-32" value="Выбор начала тестирования" style="shape=process;whiteSpace=wrap;html=1;backgroundOutline=1;" vertex="1" parent="dNxyNK7c78bLwvsdeMH5-22">
          <mxGeometry x="225" y="80" width="120" height="30" as="geometry" />
        </mxCell>
        <mxCell id="VmHKf9ybYTrdxQRz-RQ7-33" style="edgeStyle=orthogonalEdgeStyle;rounded=0;orthogonalLoop=1;jettySize=auto;html=1;entryX=0.5;entryY=0;entryDx=0;entryDy=0;" edge="1" parent="dNxyNK7c78bLwvsdeMH5-22" source="VmHKf9ybYTrdxQRz-RQ7-30" target="VmHKf9ybYTrdxQRz-RQ7-32">
          <mxGeometry relative="1" as="geometry" />
        </mxCell>
        <mxCell id="VmHKf9ybYTrdxQRz-RQ7-2" value="Блок прозвонки" style="swimlane;html=1;startSize=31;horizontal=0;" vertex="1" parent="dNxyNK7c78bLwvsdeMH5-19">
          <mxGeometry x="20" y="380" width="770" height="100" as="geometry" />
        </mxCell>
        <mxCell id="VmHKf9ybYTrdxQRz-RQ7-74" style="edgeStyle=orthogonalEdgeStyle;rounded=0;orthogonalLoop=1;jettySize=auto;html=1;" edge="1" parent="VmHKf9ybYTrdxQRz-RQ7-2" source="VmHKf9ybYTrdxQRz-RQ7-20" target="VmHKf9ybYTrdxQRz-RQ7-73">
          <mxGeometry relative="1" as="geometry" />
        </mxCell>
        <mxCell id="VmHKf9ybYTrdxQRz-RQ7-20" value="Прозвонка" style="shape=process;whiteSpace=wrap;html=1;backgroundOutline=1;" vertex="1" parent="VmHKf9ybYTrdxQRz-RQ7-2">
          <mxGeometry x="45" y="20" width="120" height="30" as="geometry" />
        </mxCell>
        <mxCell id="VmHKf9ybYTrdxQRz-RQ7-73" value="Вывод результата" style="shape=process;whiteSpace=wrap;html=1;backgroundOutline=1;" vertex="1" parent="VmHKf9ybYTrdxQRz-RQ7-2">
          <mxGeometry x="225" y="60" width="120" height="30" as="geometry" />
        </mxCell>
        <mxCell id="VmHKf9ybYTrdxQRz-RQ7-3" value="Блок тестирования&lt;div&gt;&lt;div&gt;PushButton&lt;/div&gt;&lt;/div&gt;" style="swimlane;html=1;startSize=31;horizontal=0;" vertex="1" parent="dNxyNK7c78bLwvsdeMH5-19">
          <mxGeometry x="20" y="480" width="770" height="200" as="geometry" />
        </mxCell>
        <mxCell id="VmHKf9ybYTrdxQRz-RQ7-36" value="Вкл питание платы" style="shape=process;whiteSpace=wrap;html=1;backgroundOutline=1;" vertex="1" parent="VmHKf9ybYTrdxQRz-RQ7-3">
          <mxGeometry x="45" y="25" width="120" height="30" as="geometry" />
        </mxCell>
        <mxCell id="VmHKf9ybYTrdxQRz-RQ7-46" value="Проверка PushButton" style="shape=process;whiteSpace=wrap;html=1;backgroundOutline=1;" vertex="1" parent="VmHKf9ybYTrdxQRz-RQ7-3">
          <mxGeometry x="45" y="100" width="120" height="30" as="geometry" />
        </mxCell>
        <mxCell id="VmHKf9ybYTrdxQRz-RQ7-76" value="Вывод результата" style="shape=process;whiteSpace=wrap;html=1;backgroundOutline=1;" vertex="1" parent="VmHKf9ybYTrdxQRz-RQ7-3">
          <mxGeometry x="230" y="145" width="120" height="30" as="geometry" />
        </mxCell>
        <mxCell id="VmHKf9ybYTrdxQRz-RQ7-22" value="Включение" style="shape=process;whiteSpace=wrap;html=1;backgroundOutline=1;" vertex="1" parent="VmHKf9ybYTrdxQRz-RQ7-3">
          <mxGeometry x="420" y="145" width="120" height="30" as="geometry" />
        </mxCell>
        <mxCell id="VmHKf9ybYTrdxQRz-RQ7-23" value="Включение" style="shape=process;whiteSpace=wrap;html=1;backgroundOutline=1;" vertex="1" parent="VmHKf9ybYTrdxQRz-RQ7-3">
          <mxGeometry x="610" y="145" width="120" height="30" as="geometry" />
        </mxCell>
        <mxCell id="VmHKf9ybYTrdxQRz-RQ7-47" style="edgeStyle=orthogonalEdgeStyle;rounded=0;orthogonalLoop=1;jettySize=auto;html=1;entryX=0.5;entryY=0;entryDx=0;entryDy=0;" edge="1" parent="VmHKf9ybYTrdxQRz-RQ7-3" source="VmHKf9ybYTrdxQRz-RQ7-36" target="VmHKf9ybYTrdxQRz-RQ7-46">
          <mxGeometry relative="1" as="geometry" />
        </mxCell>
        <mxCell id="VmHKf9ybYTrdxQRz-RQ7-77" style="edgeStyle=orthogonalEdgeStyle;rounded=0;orthogonalLoop=1;jettySize=auto;html=1;" edge="1" parent="VmHKf9ybYTrdxQRz-RQ7-3" source="VmHKf9ybYTrdxQRz-RQ7-46" target="VmHKf9ybYTrdxQRz-RQ7-76">
          <mxGeometry relative="1" as="geometry" />
        </mxCell>
        <mxCell id="VmHKf9ybYTrdxQRz-RQ7-138" value="" style="edgeStyle=orthogonalEdgeStyle;rounded=0;orthogonalLoop=1;jettySize=auto;html=1;" edge="1" parent="VmHKf9ybYTrdxQRz-RQ7-3" source="VmHKf9ybYTrdxQRz-RQ7-46" target="VmHKf9ybYTrdxQRz-RQ7-76">
          <mxGeometry relative="1" as="geometry" />
        </mxCell>
        <mxCell id="VmHKf9ybYTrdxQRz-RQ7-48" style="edgeStyle=orthogonalEdgeStyle;rounded=0;orthogonalLoop=1;jettySize=auto;html=1;entryX=0.5;entryY=0;entryDx=0;entryDy=0;" edge="1" parent="VmHKf9ybYTrdxQRz-RQ7-3" source="VmHKf9ybYTrdxQRz-RQ7-46" target="VmHKf9ybYTrdxQRz-RQ7-22">
          <mxGeometry relative="1" as="geometry" />
        </mxCell>
        <mxCell id="VmHKf9ybYTrdxQRz-RQ7-49" style="edgeStyle=orthogonalEdgeStyle;rounded=0;orthogonalLoop=1;jettySize=auto;html=1;entryX=0.5;entryY=0;entryDx=0;entryDy=0;" edge="1" parent="VmHKf9ybYTrdxQRz-RQ7-3" source="VmHKf9ybYTrdxQRz-RQ7-46" target="VmHKf9ybYTrdxQRz-RQ7-23">
          <mxGeometry relative="1" as="geometry" />
        </mxCell>
        <mxCell id="VmHKf9ybYTrdxQRz-RQ7-50" value="ОК" style="edgeLabel;html=1;align=center;verticalAlign=middle;resizable=0;points=[];" vertex="1" connectable="0" parent="VmHKf9ybYTrdxQRz-RQ7-49">
          <mxGeometry x="-0.914" y="-2" relative="1" as="geometry">
            <mxPoint x="-8" y="-2" as="offset" />
          </mxGeometry>
        </mxCell>
        <mxCell id="VmHKf9ybYTrdxQRz-RQ7-43" value="Блок тестирования&lt;div&gt;&amp;nbsp;VCC&lt;/div&gt;" style="swimlane;html=1;startSize=31;horizontal=0;" vertex="1" parent="dNxyNK7c78bLwvsdeMH5-19">
          <mxGeometry x="20" y="680" width="770" height="130" as="geometry" />
        </mxCell>
        <mxCell id="VmHKf9ybYTrdxQRz-RQ7-79" style="edgeStyle=orthogonalEdgeStyle;rounded=0;orthogonalLoop=1;jettySize=auto;html=1;entryX=0.5;entryY=0;entryDx=0;entryDy=0;" edge="1" parent="VmHKf9ybYTrdxQRz-RQ7-43" source="VmHKf9ybYTrdxQRz-RQ7-51" target="VmHKf9ybYTrdxQRz-RQ7-78">
          <mxGeometry relative="1" as="geometry" />
        </mxCell>
        <mxCell id="VmHKf9ybYTrdxQRz-RQ7-51" value="Проверка VCC" style="shape=process;whiteSpace=wrap;html=1;backgroundOutline=1;" vertex="1" parent="VmHKf9ybYTrdxQRz-RQ7-43">
          <mxGeometry x="45" y="20" width="120" height="30" as="geometry" />
        </mxCell>
        <mxCell id="VmHKf9ybYTrdxQRz-RQ7-78" value="Вывод результата" style="shape=process;whiteSpace=wrap;html=1;backgroundOutline=1;" vertex="1" parent="VmHKf9ybYTrdxQRz-RQ7-43">
          <mxGeometry x="230" y="60" width="120" height="30" as="geometry" />
        </mxCell>
        <mxCell id="VmHKf9ybYTrdxQRz-RQ7-8" value="" style="endArrow=none;dashed=1;html=1;rounded=0;entryX=0.25;entryY=0;entryDx=0;entryDy=0;exitX=0.25;exitY=1;exitDx=0;exitDy=0;" edge="1" parent="dNxyNK7c78bLwvsdeMH5-19" source="VmHKf9ybYTrdxQRz-RQ7-100" target="dNxyNK7c78bLwvsdeMH5-20">
          <mxGeometry width="50" height="50" relative="1" as="geometry">
            <mxPoint x="380" y="240" as="sourcePoint" />
            <mxPoint x="430" y="190" as="targetPoint" />
          </mxGeometry>
        </mxCell>
        <mxCell id="VmHKf9ybYTrdxQRz-RQ7-9" value="" style="endArrow=none;dashed=1;html=1;rounded=0;entryX=0.5;entryY=0;entryDx=0;entryDy=0;exitX=0.5;exitY=1;exitDx=0;exitDy=0;" edge="1" parent="dNxyNK7c78bLwvsdeMH5-19" source="VmHKf9ybYTrdxQRz-RQ7-100" target="dNxyNK7c78bLwvsdeMH5-20">
          <mxGeometry width="50" height="50" relative="1" as="geometry">
            <mxPoint x="400" y="1070" as="sourcePoint" />
            <mxPoint x="430" y="90" as="targetPoint" />
          </mxGeometry>
        </mxCell>
        <mxCell id="VmHKf9ybYTrdxQRz-RQ7-10" value="" style="endArrow=none;dashed=1;html=1;rounded=0;entryX=0.75;entryY=0;entryDx=0;entryDy=0;exitX=0.75;exitY=1;exitDx=0;exitDy=0;" edge="1" parent="dNxyNK7c78bLwvsdeMH5-19" source="VmHKf9ybYTrdxQRz-RQ7-100" target="dNxyNK7c78bLwvsdeMH5-20">
          <mxGeometry width="50" height="50" relative="1" as="geometry">
            <mxPoint x="380" y="140" as="sourcePoint" />
            <mxPoint x="430" y="90" as="targetPoint" />
          </mxGeometry>
        </mxCell>
        <mxCell id="VmHKf9ybYTrdxQRz-RQ7-17" style="edgeStyle=orthogonalEdgeStyle;rounded=0;orthogonalLoop=1;jettySize=auto;html=1;exitX=0.5;exitY=1;exitDx=0;exitDy=0;entryX=0.5;entryY=0;entryDx=0;entryDy=0;" edge="1" parent="dNxyNK7c78bLwvsdeMH5-19" source="VmHKf9ybYTrdxQRz-RQ7-4" target="VmHKf9ybYTrdxQRz-RQ7-15">
          <mxGeometry relative="1" as="geometry" />
        </mxCell>
        <mxCell id="VmHKf9ybYTrdxQRz-RQ7-18" style="edgeStyle=orthogonalEdgeStyle;rounded=0;orthogonalLoop=1;jettySize=auto;html=1;exitX=0.5;exitY=1;exitDx=0;exitDy=0;entryX=0.5;entryY=0;entryDx=0;entryDy=0;" edge="1" parent="dNxyNK7c78bLwvsdeMH5-19" source="VmHKf9ybYTrdxQRz-RQ7-5" target="VmHKf9ybYTrdxQRz-RQ7-16">
          <mxGeometry relative="1" as="geometry" />
        </mxCell>
        <mxCell id="VmHKf9ybYTrdxQRz-RQ7-31" style="edgeStyle=orthogonalEdgeStyle;rounded=0;orthogonalLoop=1;jettySize=auto;html=1;entryX=0.5;entryY=0;entryDx=0;entryDy=0;" edge="1" parent="dNxyNK7c78bLwvsdeMH5-19" source="VmHKf9ybYTrdxQRz-RQ7-16" target="VmHKf9ybYTrdxQRz-RQ7-30">
          <mxGeometry relative="1" as="geometry" />
        </mxCell>
        <mxCell id="VmHKf9ybYTrdxQRz-RQ7-34" style="edgeStyle=orthogonalEdgeStyle;rounded=0;orthogonalLoop=1;jettySize=auto;html=1;entryX=0.5;entryY=0;entryDx=0;entryDy=0;" edge="1" parent="dNxyNK7c78bLwvsdeMH5-19" source="VmHKf9ybYTrdxQRz-RQ7-32" target="VmHKf9ybYTrdxQRz-RQ7-20">
          <mxGeometry relative="1" as="geometry" />
        </mxCell>
        <mxCell id="VmHKf9ybYTrdxQRz-RQ7-35" value="ОК" style="edgeLabel;html=1;align=center;verticalAlign=middle;resizable=0;points=[];" vertex="1" connectable="0" parent="VmHKf9ybYTrdxQRz-RQ7-34">
          <mxGeometry x="-0.4957" relative="1" as="geometry">
            <mxPoint x="32" as="offset" />
          </mxGeometry>
        </mxCell>
        <mxCell id="VmHKf9ybYTrdxQRz-RQ7-37" style="edgeStyle=orthogonalEdgeStyle;rounded=0;orthogonalLoop=1;jettySize=auto;html=1;entryX=0.5;entryY=0;entryDx=0;entryDy=0;" edge="1" parent="dNxyNK7c78bLwvsdeMH5-19" source="VmHKf9ybYTrdxQRz-RQ7-20" target="VmHKf9ybYTrdxQRz-RQ7-36">
          <mxGeometry relative="1" as="geometry" />
        </mxCell>
        <mxCell id="VmHKf9ybYTrdxQRz-RQ7-41" value="ОК" style="edgeLabel;html=1;align=center;verticalAlign=middle;resizable=0;points=[];" vertex="1" connectable="0" parent="VmHKf9ybYTrdxQRz-RQ7-37">
          <mxGeometry x="-0.5529" y="-1" relative="1" as="geometry">
            <mxPoint as="offset" />
          </mxGeometry>
        </mxCell>
        <mxCell id="VmHKf9ybYTrdxQRz-RQ7-52" value="" style="edgeStyle=orthogonalEdgeStyle;rounded=0;orthogonalLoop=1;jettySize=auto;html=1;" edge="1" parent="dNxyNK7c78bLwvsdeMH5-19" source="VmHKf9ybYTrdxQRz-RQ7-46" target="VmHKf9ybYTrdxQRz-RQ7-51">
          <mxGeometry relative="1" as="geometry" />
        </mxCell>
        <mxCell id="VmHKf9ybYTrdxQRz-RQ7-53" value="ОК" style="edgeLabel;html=1;align=center;verticalAlign=middle;resizable=0;points=[];" vertex="1" connectable="0" parent="VmHKf9ybYTrdxQRz-RQ7-52">
          <mxGeometry x="-0.5091" y="-2" relative="1" as="geometry">
            <mxPoint as="offset" />
          </mxGeometry>
        </mxCell>
        <mxCell id="VmHKf9ybYTrdxQRz-RQ7-55" style="edgeStyle=orthogonalEdgeStyle;rounded=0;orthogonalLoop=1;jettySize=auto;html=1;entryX=0.5;entryY=0;entryDx=0;entryDy=0;" edge="1" parent="dNxyNK7c78bLwvsdeMH5-19" source="VmHKf9ybYTrdxQRz-RQ7-51" target="VmHKf9ybYTrdxQRz-RQ7-62">
          <mxGeometry relative="1" as="geometry">
            <mxPoint x="125" y="970" as="targetPoint" />
          </mxGeometry>
        </mxCell>
        <mxCell id="VmHKf9ybYTrdxQRz-RQ7-56" value="ОК" style="edgeLabel;html=1;align=center;verticalAlign=middle;resizable=0;points=[];" vertex="1" connectable="0" parent="VmHKf9ybYTrdxQRz-RQ7-55">
          <mxGeometry x="-0.0769" y="-2" relative="1" as="geometry">
            <mxPoint as="offset" />
          </mxGeometry>
        </mxCell>
        <mxCell id="VmHKf9ybYTrdxQRz-RQ7-44" value="Блок тестирования RPI" style="swimlane;html=1;startSize=31;horizontal=0;" vertex="1" parent="dNxyNK7c78bLwvsdeMH5-19">
          <mxGeometry x="20" y="810" width="770" height="1350" as="geometry" />
        </mxCell>
        <mxCell id="VmHKf9ybYTrdxQRz-RQ7-94" value="Тест RASP_POW" style="html=1;fontColor=#00994D;fontStyle=1;align=right;verticalAlign=top;spacing=0;labelBorderColor=none;fillColor=none;dashed=1;strokeWidth=2;strokeColor=#00994D;spacingLeft=4;spacingTop=-3;" vertex="1" parent="VmHKf9ybYTrdxQRz-RQ7-44">
          <mxGeometry x="40" y="362.5" width="720" height="310" as="geometry" />
        </mxCell>
        <mxCell id="VmHKf9ybYTrdxQRz-RQ7-91" value="Тест UART" style="html=1;fontColor=#00994D;fontStyle=1;align=right;verticalAlign=top;spacing=0;labelBorderColor=none;fillColor=none;dashed=1;strokeWidth=2;strokeColor=#00994D;spacingLeft=4;spacingTop=-3;" vertex="1" parent="VmHKf9ybYTrdxQRz-RQ7-44">
          <mxGeometry x="40" y="30" width="720" height="302.5" as="geometry" />
        </mxCell>
        <mxCell id="VmHKf9ybYTrdxQRz-RQ7-69" value="" style="edgeStyle=orthogonalEdgeStyle;rounded=0;orthogonalLoop=1;jettySize=auto;html=1;" edge="1" parent="VmHKf9ybYTrdxQRz-RQ7-44" source="VmHKf9ybYTrdxQRz-RQ7-57" target="VmHKf9ybYTrdxQRz-RQ7-68">
          <mxGeometry relative="1" as="geometry" />
        </mxCell>
        <mxCell id="VmHKf9ybYTrdxQRz-RQ7-57" value="Получение сообщения на CMCU_STM_RX" style="shape=process;whiteSpace=wrap;html=1;backgroundOutline=1;" vertex="1" parent="VmHKf9ybYTrdxQRz-RQ7-44">
          <mxGeometry x="420" y="87.5" width="120" height="55" as="geometry" />
        </mxCell>
        <mxCell id="VmHKf9ybYTrdxQRz-RQ7-66" style="edgeStyle=orthogonalEdgeStyle;rounded=0;orthogonalLoop=1;jettySize=auto;html=1;entryX=0.5;entryY=0;entryDx=0;entryDy=0;" edge="1" parent="VmHKf9ybYTrdxQRz-RQ7-44" source="VmHKf9ybYTrdxQRz-RQ7-62" target="VmHKf9ybYTrdxQRz-RQ7-57">
          <mxGeometry relative="1" as="geometry" />
        </mxCell>
        <mxCell id="VmHKf9ybYTrdxQRz-RQ7-67" value="ОК" style="edgeLabel;html=1;align=center;verticalAlign=middle;resizable=0;points=[];" vertex="1" connectable="0" parent="VmHKf9ybYTrdxQRz-RQ7-66">
          <mxGeometry x="-0.8993" y="-2" relative="1" as="geometry">
            <mxPoint x="-2" y="-2" as="offset" />
          </mxGeometry>
        </mxCell>
        <mxCell id="VmHKf9ybYTrdxQRz-RQ7-62" value="Отправка сообщения на CMCU_STM_RX" style="shape=process;whiteSpace=wrap;html=1;backgroundOutline=1;" vertex="1" parent="VmHKf9ybYTrdxQRz-RQ7-44">
          <mxGeometry x="45" y="42.5" width="120" height="45" as="geometry" />
        </mxCell>
        <mxCell id="VmHKf9ybYTrdxQRz-RQ7-71" style="edgeStyle=orthogonalEdgeStyle;rounded=0;orthogonalLoop=1;jettySize=auto;html=1;" edge="1" parent="VmHKf9ybYTrdxQRz-RQ7-44" source="VmHKf9ybYTrdxQRz-RQ7-68" target="VmHKf9ybYTrdxQRz-RQ7-70">
          <mxGeometry relative="1" as="geometry" />
        </mxCell>
        <mxCell id="VmHKf9ybYTrdxQRz-RQ7-72" value="ОК" style="edgeLabel;html=1;align=center;verticalAlign=middle;resizable=0;points=[];" vertex="1" connectable="0" parent="VmHKf9ybYTrdxQRz-RQ7-71">
          <mxGeometry x="-0.8944" y="-1" relative="1" as="geometry">
            <mxPoint as="offset" />
          </mxGeometry>
        </mxCell>
        <mxCell id="VmHKf9ybYTrdxQRz-RQ7-68" value="Отправка сообщения на CMCU_STM_TX" style="shape=process;whiteSpace=wrap;html=1;backgroundOutline=1;" vertex="1" parent="VmHKf9ybYTrdxQRz-RQ7-44">
          <mxGeometry x="420" y="170" width="120" height="55" as="geometry" />
        </mxCell>
        <mxCell id="VmHKf9ybYTrdxQRz-RQ7-83" style="edgeStyle=orthogonalEdgeStyle;rounded=0;orthogonalLoop=1;jettySize=auto;html=1;entryX=0.5;entryY=0;entryDx=0;entryDy=0;" edge="1" parent="VmHKf9ybYTrdxQRz-RQ7-44" source="VmHKf9ybYTrdxQRz-RQ7-70" target="VmHKf9ybYTrdxQRz-RQ7-82">
          <mxGeometry relative="1" as="geometry" />
        </mxCell>
        <mxCell id="VmHKf9ybYTrdxQRz-RQ7-93" style="edgeStyle=orthogonalEdgeStyle;rounded=0;orthogonalLoop=1;jettySize=auto;html=1;entryX=0.5;entryY=0;entryDx=0;entryDy=0;" edge="1" parent="VmHKf9ybYTrdxQRz-RQ7-44" source="VmHKf9ybYTrdxQRz-RQ7-70" target="VmHKf9ybYTrdxQRz-RQ7-92">
          <mxGeometry relative="1" as="geometry" />
        </mxCell>
        <mxCell id="VmHKf9ybYTrdxQRz-RQ7-70" value="Получение сообщения на CMCU_STM_TX" style="shape=process;whiteSpace=wrap;html=1;backgroundOutline=1;" vertex="1" parent="VmHKf9ybYTrdxQRz-RQ7-44">
          <mxGeometry x="45" y="232.5" width="120" height="55" as="geometry" />
        </mxCell>
        <mxCell id="VmHKf9ybYTrdxQRz-RQ7-85" style="edgeStyle=orthogonalEdgeStyle;rounded=0;orthogonalLoop=1;jettySize=auto;html=1;entryX=0.5;entryY=0;entryDx=0;entryDy=0;" edge="1" parent="VmHKf9ybYTrdxQRz-RQ7-44" source="VmHKf9ybYTrdxQRz-RQ7-82" target="VmHKf9ybYTrdxQRz-RQ7-84">
          <mxGeometry relative="1" as="geometry" />
        </mxCell>
        <mxCell id="VmHKf9ybYTrdxQRz-RQ7-82" value="Установка высокого уровня на RASP_POW&lt;span style=&quot;text-wrap: nowrap; color: rgba(0, 0, 0, 0); font-family: monospace; font-size: 0px; text-align: start;&quot;&gt;%3CmxGraphModel%3E%3Croot%3E%3CmxCell%20id%3D%220%22%2F%3E%3CmxCell%20id%3D%221%22%20parent%3D%220%22%2F%3E%3CmxCell%20id%3D%222%22%20value%3D%22%D0%9E%D1%82%D0%BF%D1%80%D0%B0%D0%B2%D0%BA%D0%B0%20%D0%BA%D0%BE%D0%BC%D0%B0%D0%BD%D0%B4%D1%8B%20%D0%B4%D0%BB%D1%8F%20%D1%82%D0%B5%D1%81%D1%82%D0%B0%20RASP_POW%22%20style%3D%22shape%3Dprocess%3BwhiteSpace%3Dwrap%3Bhtml%3D1%3BbackgroundOutline%3D1%3B%22%20vertex%3D%221%22%20parent%3D%221%22%3E%3CmxGeometry%20x%3D%2275%22%20y%3D%221280%22%20width%3D%22120%22%20height%3D%2260%22%20as%3D%22geometry%22%2F%3E%3C%2FmxCell%3E%3C%2Froot%3E%3C%2FmxGraphModel%3E&lt;/span&gt;" style="shape=process;whiteSpace=wrap;html=1;backgroundOutline=1;" vertex="1" parent="VmHKf9ybYTrdxQRz-RQ7-44">
          <mxGeometry x="45" y="382.5" width="120" height="60" as="geometry" />
        </mxCell>
        <mxCell id="VmHKf9ybYTrdxQRz-RQ7-89" style="edgeStyle=orthogonalEdgeStyle;rounded=0;orthogonalLoop=1;jettySize=auto;html=1;entryX=0.5;entryY=0;entryDx=0;entryDy=0;" edge="1" parent="VmHKf9ybYTrdxQRz-RQ7-44" source="VmHKf9ybYTrdxQRz-RQ7-84" target="VmHKf9ybYTrdxQRz-RQ7-88">
          <mxGeometry relative="1" as="geometry" />
        </mxCell>
        <mxCell id="VmHKf9ybYTrdxQRz-RQ7-84" value="Проверка значения RASP_POW&lt;span style=&quot;text-wrap: nowrap; color: rgba(0, 0, 0, 0); font-family: monospace; font-size: 0px; text-align: start;&quot;&gt;%3CmxGraphModel%3E%3Croot%3E%3CmxCell%20id%3D%220%22%2F%3E%3CmxCell%20id%3D%221%22%20parent%3D%220%22%2F%3E%3CmxCell%20id%3D%222%22%20value%3D%22%D0%A3%D1%81%D1%82%D0%B0%D0%BD%D0%BE%D0%B2%D0%BA%D0%B0%20%D0%B2%D1%8B%D1%81%D0%BE%D0%BA%D0%BE%D0%B3%D0%BE%20%D1%83%D1%80%D0%BE%D0%B2%D0%BD%D1%8F%20%D0%BD%D0%B0%20RASP_POW%26lt%3Bspan%20style%3D%26quot%3Bcolor%3A%20rgba(0%2C%200%2C%200%2C%200)%3B%20font-family%3A%20monospace%3B%20font-size%3A%200px%3B%20text-align%3A%20start%3B%20text-wrap%3A%20nowrap%3B%26quot%3B%26gt%3B%253CmxGraphModel%253E%253Croot%253E%253CmxCell%2520id%253D%25220%2522%252F%253E%253CmxCell%2520id%253D%25221%2522%2520parent%253D%25220%2522%252F%253E%253CmxCell%2520id%253D%25222%2522%2520value%253D%2522%25D0%259E%25D1%2582%25D0%25BF%25D1%2580%25D0%25B0%25D0%25B2%25D0%25BA%25D0%25B0%2520%25D0%25BA%25D0%25BE%25D0%25BC%25D0%25B0%25D0%25BD%25D0%25B4%25D1%258B%2520%25D0%25B4%25D0%25BB%25D1%258F%2520%25D1%2582%25D0%25B5%25D1%2581%25D1%2582%25D0%25B0%2520RASP_POW%2522%2520style%253D%2522shape%253Dprocess%253BwhiteSpace%253Dwrap%253Bhtml%253D1%253BbackgroundOutline%253D1%253B%2522%2520vertex%253D%25221%2522%2520parent%253D%25221%2522%253E%253CmxGeometry%2520x%253D%252275%2522%2520y%253D%25221280%2522%2520width%253D%2522120%2522%2520height%253D%252260%2522%2520as%253D%2522geometry%2522%252F%253E%253C%252FmxCell%253E%253C%252Froot%253E%253C%252FmxGraphModel%253E%26lt%3B%2Fspan%26gt%3B%22%20style%3D%22shape%3Dprocess%3BwhiteSpace%3Dwrap%3Bhtml%3D1%3BbackgroundOutline%3D1%3B%22%20vertex%3D%221%22%20parent%3D%221%22%3E%3CmxGeometry%20x%3D%22450%22%20y%3D%221340%22%20width%3D%22120%22%20height%3D%2250%22%20as%3D%22geometry%22%2F%3E%3C%2FmxCell%3E%3C%2Froot%3E%3C%2FmxGraphModel%3E&lt;/span&gt;" style="shape=process;whiteSpace=wrap;html=1;backgroundOutline=1;" vertex="1" parent="VmHKf9ybYTrdxQRz-RQ7-44">
          <mxGeometry x="420" y="442.5" width="120" height="50" as="geometry" />
        </mxCell>
        <mxCell id="VmHKf9ybYTrdxQRz-RQ7-96" style="edgeStyle=orthogonalEdgeStyle;rounded=0;orthogonalLoop=1;jettySize=auto;html=1;entryX=0.5;entryY=0;entryDx=0;entryDy=0;" edge="1" parent="VmHKf9ybYTrdxQRz-RQ7-44" source="VmHKf9ybYTrdxQRz-RQ7-86" target="VmHKf9ybYTrdxQRz-RQ7-95">
          <mxGeometry relative="1" as="geometry" />
        </mxCell>
        <mxCell id="VmHKf9ybYTrdxQRz-RQ7-107" style="edgeStyle=orthogonalEdgeStyle;rounded=0;orthogonalLoop=1;jettySize=auto;html=1;entryX=0.5;entryY=0;entryDx=0;entryDy=0;" edge="1" parent="VmHKf9ybYTrdxQRz-RQ7-44" source="VmHKf9ybYTrdxQRz-RQ7-86" target="VmHKf9ybYTrdxQRz-RQ7-105">
          <mxGeometry relative="1" as="geometry" />
        </mxCell>
        <mxCell id="VmHKf9ybYTrdxQRz-RQ7-86" value="Получение результата на CMCU_STM_TX" style="shape=process;whiteSpace=wrap;html=1;backgroundOutline=1;" vertex="1" parent="VmHKf9ybYTrdxQRz-RQ7-44">
          <mxGeometry x="45" y="577.5" width="120" height="50" as="geometry" />
        </mxCell>
        <mxCell id="VmHKf9ybYTrdxQRz-RQ7-90" style="edgeStyle=orthogonalEdgeStyle;rounded=0;orthogonalLoop=1;jettySize=auto;html=1;entryX=0.5;entryY=0;entryDx=0;entryDy=0;" edge="1" parent="VmHKf9ybYTrdxQRz-RQ7-44" source="VmHKf9ybYTrdxQRz-RQ7-88" target="VmHKf9ybYTrdxQRz-RQ7-86">
          <mxGeometry relative="1" as="geometry" />
        </mxCell>
        <mxCell id="VmHKf9ybYTrdxQRz-RQ7-88" value="Отправка результата на CMCU_STM_TX" style="shape=process;whiteSpace=wrap;html=1;backgroundOutline=1;" vertex="1" parent="VmHKf9ybYTrdxQRz-RQ7-44">
          <mxGeometry x="420" y="522.5" width="120" height="55" as="geometry" />
        </mxCell>
        <mxCell id="VmHKf9ybYTrdxQRz-RQ7-92" value="Вывод результата" style="shape=process;whiteSpace=wrap;html=1;backgroundOutline=1;" vertex="1" parent="VmHKf9ybYTrdxQRz-RQ7-44">
          <mxGeometry x="230" y="287.5" width="120" height="30" as="geometry" />
        </mxCell>
        <mxCell id="VmHKf9ybYTrdxQRz-RQ7-95" value="Вывод результата" style="shape=process;whiteSpace=wrap;html=1;backgroundOutline=1;" vertex="1" parent="VmHKf9ybYTrdxQRz-RQ7-44">
          <mxGeometry x="230" y="627.5" width="120" height="30" as="geometry" />
        </mxCell>
        <mxCell id="VmHKf9ybYTrdxQRz-RQ7-104" value="Тест RTS" style="html=1;fontColor=#00994D;fontStyle=1;align=right;verticalAlign=top;spacing=0;labelBorderColor=none;fillColor=none;dashed=1;strokeWidth=2;strokeColor=#00994D;spacingLeft=4;spacingTop=-3;" vertex="1" parent="VmHKf9ybYTrdxQRz-RQ7-44">
          <mxGeometry x="40" y="700" width="720" height="640" as="geometry" />
        </mxCell>
        <mxCell id="VmHKf9ybYTrdxQRz-RQ7-108" style="edgeStyle=orthogonalEdgeStyle;rounded=0;orthogonalLoop=1;jettySize=auto;html=1;entryX=0.5;entryY=0;entryDx=0;entryDy=0;" edge="1" parent="VmHKf9ybYTrdxQRz-RQ7-44" source="VmHKf9ybYTrdxQRz-RQ7-105" target="VmHKf9ybYTrdxQRz-RQ7-106">
          <mxGeometry relative="1" as="geometry" />
        </mxCell>
        <mxCell id="VmHKf9ybYTrdxQRz-RQ7-105" value="Установка START условия на&amp;nbsp; RASP_SDA&lt;span style=&quot;text-wrap: nowrap; color: rgba(0, 0, 0, 0); font-family: monospace; font-size: 0px; text-align: start;&quot;&gt;%3CmxGraphModel%3E%3Croot%3E%3CmxCell%20id%3D%220%22%2F%3E%3CmxCell%20id%3D%221%22%20parent%3D%220%22%2F%3E%3CmxCell%20id%3D%222%22%20value%3D%22%D0%9E%D1%82%D0%BF%D1%80%D0%B0%D0%B2%D0%BA%D0%B0%20%D0%BA%D0%BE%D0%BC%D0%B0%D0%BD%D0%B4%D1%8B%20%D0%B4%D0%BB%D1%8F%20%D1%82%D0%B5%D1%81%D1%82%D0%B0%20RASP_POW%22%20style%3D%22shape%3Dprocess%3BwhiteSpace%3Dwrap%3Bhtml%3D1%3BbackgroundOutline%3D1%3B%22%20vertex%3D%221%22%20parent%3D%221%22%3E%3CmxGeometry%20x%3D%2275%22%20y%3D%221280%22%20width%3D%22120%22%20height%3D%2260%22%20as%3D%22geometry%22%2F%3E%3C%2FmxCell%3E%3C%2Froot%3E%3C%2FmxGraphModel%3E&lt;/span&gt;" style="shape=process;whiteSpace=wrap;html=1;backgroundOutline=1;" vertex="1" parent="VmHKf9ybYTrdxQRz-RQ7-44">
          <mxGeometry x="45" y="714" width="120" height="60" as="geometry" />
        </mxCell>
        <mxCell id="VmHKf9ybYTrdxQRz-RQ7-110" style="edgeStyle=orthogonalEdgeStyle;rounded=0;orthogonalLoop=1;jettySize=auto;html=1;exitX=0.5;exitY=1;exitDx=0;exitDy=0;entryX=0.5;entryY=0;entryDx=0;entryDy=0;" edge="1" parent="VmHKf9ybYTrdxQRz-RQ7-44" source="VmHKf9ybYTrdxQRz-RQ7-106" target="VmHKf9ybYTrdxQRz-RQ7-109">
          <mxGeometry relative="1" as="geometry" />
        </mxCell>
        <mxCell id="VmHKf9ybYTrdxQRz-RQ7-106" value="Передача адреса RTC + R/W в режиме записи (1 байт) по RASP_SDA&lt;span style=&quot;color: rgba(0, 0, 0, 0); font-family: monospace; font-size: 0px; text-align: start; text-wrap: nowrap;&quot;&gt;%3CmxGraphModel%3E%3Croot%3E%3CmxCell%20id%3D%220%22%2F%3E%3CmxCell%20id%3D%221%22%20parent%3D%220%22%2F%3E%3CmxCell%20id%3D%222%22%20value%3D%22%D0%A3%D1%81%D1%82%D0%B0%D0%BD%D0%BE%D0%B2%D0%BA%D0%B0%20%D1%81%D1%82%D0%B0%D1%80%D0%BE%D0%B2%D0%BE%D0%B3%D0%BE%20%D1%83%D1%81%D0%BB%D0%BE%D0%B2%D0%B8%D1%8F%20%D0%BD%D0%B0%26amp%3Bnbsp%3B%20RASP_SDA%26lt%3Bspan%20style%3D%26quot%3Btext-wrap%3A%20nowrap%3B%20color%3A%20rgba(0%2C%200%2C%200%2C%200)%3B%20font-family%3A%20monospace%3B%20font-size%3A%200px%3B%20text-align%3A%20start%3B%26quot%3B%26gt%3B%253CmxGraphModel%253E%253Croot%253E%253CmxCell%2520id%253D%25220%2522%252F%253E%253CmxCell%2520id%253D%25221%2522%2520parent%253D%25220%2522%252F%253E%253CmxCell%2520id%253D%25222%2522%2520value%253D%2522%25D0%259E%25D1%2582%25D0%25BF%25D1%2580%25D0%25B0%25D0%25B2%25D0%25BA%25D0%25B0%2520%25D0%25BA%25D0%25BE%25D0%25BC%25D0%25B0%25D0%25BD%25D0%25B4%25D1%258B%2520%25D0%25B4%25D0%25BB%25D1%258F%2520%25D1%2582%25D0%25B5%25D1%2581%25D1%2582%25D0%25B0%2520RASP_POW%2522%2520style%253D%2522shape%253Dprocess%253BwhiteSpace%253Dwrap%253Bhtml%253D1%253BbackgroundOutline%253D1%253B%2522%2520vertex%253D%25221%2522%2520parent%253D%25221%2522%253E%253CmxGeometry%2520x%253D%252275%2522%2520y%253D%25221280%2522%2520width%253D%2522120%2522%2520height%253D%252260%2522%2520as%253D%2522geometry%2522%252F%253E%253C%252FmxCell%253E%253C%252Froot%253E%253C%252FmxGraphModel%253E%26lt%3B%2Fspan%26gt%3B%22%20style%3D%22shape%3Dprocess%3BwhiteSpace%3Dwrap%3Bhtml%3D1%3BbackgroundOutline%3D1%3B%22%20vertex%3D%221%22%20parent%3D%221%22%3E%3CmxGeometry%20x%3D%2275%22%20y%3D%221694%22%20width%3D%22120%22%20height%3D%2260%22%20as%3D%22geometry%22%2F%3E%3C%2FmxCell%3E%3C%2Froot%3E%3C%2FmxGraphModel%3E&lt;/span&gt;&lt;span style=&quot;color: rgba(0, 0, 0, 0); font-family: monospace; font-size: 0px; text-align: start; text-wrap: nowrap;&quot;&gt;%3CmxGraphModel%3E%3Croot%3E%3CmxCell%20id%3D%220%22%2F%3E%3CmxCell%20id%3D%221%22%20parent%3D%220%22%2F%3E%3CmxCell%20id%3D%222%22%20value%3D%22%D0%A3%D1%81%D1%82%D0%B0%D0%BD%D0%BE%D0%B2%D0%BA%D0%B0%20%D1%81%D1%82%D0%B0%D1%80%D0%BE%D0%B2%D0%BE%D0%B3%D0%BE%20%D1%83%D1%81%D0%BB%D0%BE%D0%B2%D0%B8%D1%8F%20%D0%BD%D0%B0%26amp%3Bnbsp%3B%20RASP_SDA%26lt%3Bspan%20style%3D%26quot%3Btext-wrap%3A%20nowrap%3B%20color%3A%20rgba(0%2C%200%2C%200%2C%200)%3B%20font-family%3A%20monospace%3B%20font-size%3A%200px%3B%20text-align%3A%20start%3B%26quot%3B%26gt%3B%253CmxGraphModel%253E%253Croot%253E%253CmxCell%2520id%253D%25220%2522%252F%253E%253CmxCell%2520id%253D%25221%2522%2520parent%253D%25220%2522%252F%253E%253CmxCell%2520id%253D%25222%2522%2520value%253D%2522%25D0%259E%25D1%2582%25D0%25BF%25D1%2580%25D0%25B0%25D0%25B2%25D0%25BA%25D0%25B0%2520%25D0%25BA%25D0%25BE%25D0%25BC%25D0%25B0%25D0%25BD%25D0%25B4%25D1%258B%2520%25D0%25B4%25D0%25BB%25D1%258F%2520%25D1%2582%25D0%25B5%25D1%2581%25D1%2582%25D0%25B0%2520RASP_POW%2522%2520style%253D%2522shape%253Dprocess%253BwhiteSpace%253Dwrap%253Bhtml%253D1%253BbackgroundOutline%253D1%253B%2522%2520vertex%253D%25221%2522%2520parent%253D%25221%2522%253E%253CmxGeometry%2520x%253D%252275%2522%2520y%253D%25221280%2522%2520width%253D%2522120%2522%2520height%253D%252260%2522%2520as%253D%2522geometry%2522%252F%253E%253C%252FmxCell%253E%253C%252Froot%253E%253C%252FmxGraphModel%253E%26lt%3B%2Fspan%26gt%3B%22%20style%3D%22shape%3Dprocess%3BwhiteSpace%3Dwrap%3Bhtml%3D1%3BbackgroundOutline%3D1%3B%22%20vertex%3D%221%22%20parent%3D%221%22%3E%3CmxGeometry%20x%3D%2275%22%20y%3D%221694%22%20width%3D%22120%22%20height%3D%2260%22%20as%3D%22geometry%22%2F%3E%3C%2FmxCell%3E%3C%2Froot%3E%3C%2FmxGraphModel%3E&lt;/span&gt;" style="shape=process;whiteSpace=wrap;html=1;backgroundOutline=1;" vertex="1" parent="VmHKf9ybYTrdxQRz-RQ7-44">
          <mxGeometry x="45" y="800" width="120" height="80" as="geometry" />
        </mxCell>
        <mxCell id="VmHKf9ybYTrdxQRz-RQ7-112" style="edgeStyle=orthogonalEdgeStyle;rounded=0;orthogonalLoop=1;jettySize=auto;html=1;exitX=0.5;exitY=1;exitDx=0;exitDy=0;entryX=0.5;entryY=0;entryDx=0;entryDy=0;" edge="1" parent="VmHKf9ybYTrdxQRz-RQ7-44" source="VmHKf9ybYTrdxQRz-RQ7-109" target="VmHKf9ybYTrdxQRz-RQ7-111">
          <mxGeometry relative="1" as="geometry" />
        </mxCell>
        <mxCell id="VmHKf9ybYTrdxQRz-RQ7-109" value="Отправка адреса начала чтения&amp;nbsp;" style="shape=process;whiteSpace=wrap;html=1;backgroundOutline=1;" vertex="1" parent="VmHKf9ybYTrdxQRz-RQ7-44">
          <mxGeometry x="45" y="910" width="120" height="60" as="geometry" />
        </mxCell>
        <mxCell id="VmHKf9ybYTrdxQRz-RQ7-114" style="edgeStyle=orthogonalEdgeStyle;rounded=0;orthogonalLoop=1;jettySize=auto;html=1;entryX=0.5;entryY=0;entryDx=0;entryDy=0;" edge="1" parent="VmHKf9ybYTrdxQRz-RQ7-44" source="VmHKf9ybYTrdxQRz-RQ7-111" target="VmHKf9ybYTrdxQRz-RQ7-113">
          <mxGeometry relative="1" as="geometry" />
        </mxCell>
        <mxCell id="VmHKf9ybYTrdxQRz-RQ7-111" value="Условие STOP" style="shape=process;whiteSpace=wrap;html=1;backgroundOutline=1;" vertex="1" parent="VmHKf9ybYTrdxQRz-RQ7-44">
          <mxGeometry x="45" y="990" width="120" height="20" as="geometry" />
        </mxCell>
        <mxCell id="VmHKf9ybYTrdxQRz-RQ7-116" style="edgeStyle=orthogonalEdgeStyle;rounded=0;orthogonalLoop=1;jettySize=auto;html=1;entryX=0.5;entryY=0;entryDx=0;entryDy=0;" edge="1" parent="VmHKf9ybYTrdxQRz-RQ7-44" source="VmHKf9ybYTrdxQRz-RQ7-113" target="VmHKf9ybYTrdxQRz-RQ7-115">
          <mxGeometry relative="1" as="geometry" />
        </mxCell>
        <mxCell id="VmHKf9ybYTrdxQRz-RQ7-113" value="Установка START условия на&amp;nbsp; RASP_SDA&lt;span style=&quot;text-wrap: nowrap; color: rgba(0, 0, 0, 0); font-family: monospace; font-size: 0px; text-align: start;&quot;&gt;%3CmxGraphModel%3E%3Croot%3E%3CmxCell%20id%3D%220%22%2F%3E%3CmxCell%20id%3D%221%22%20parent%3D%220%22%2F%3E%3CmxCell%20id%3D%222%22%20value%3D%22%D0%9E%D1%82%D0%BF%D1%80%D0%B0%D0%B2%D0%BA%D0%B0%20%D0%BA%D0%BE%D0%BC%D0%B0%D0%BD%D0%B4%D1%8B%20%D0%B4%D0%BB%D1%8F%20%D1%82%D0%B5%D1%81%D1%82%D0%B0%20RASP_POW%22%20style%3D%22shape%3Dprocess%3BwhiteSpace%3Dwrap%3Bhtml%3D1%3BbackgroundOutline%3D1%3B%22%20vertex%3D%221%22%20parent%3D%221%22%3E%3CmxGeometry%20x%3D%2275%22%20y%3D%221280%22%20width%3D%22120%22%20height%3D%2260%22%20as%3D%22geometry%22%2F%3E%3C%2FmxCell%3E%3C%2Froot%3E%3C%2FmxGraphModel%3E&lt;/span&gt;" style="shape=process;whiteSpace=wrap;html=1;backgroundOutline=1;" vertex="1" parent="VmHKf9ybYTrdxQRz-RQ7-44">
          <mxGeometry x="45" y="1040" width="120" height="60" as="geometry" />
        </mxCell>
        <mxCell id="VmHKf9ybYTrdxQRz-RQ7-118" style="edgeStyle=orthogonalEdgeStyle;rounded=0;orthogonalLoop=1;jettySize=auto;html=1;exitX=0.5;exitY=1;exitDx=0;exitDy=0;entryX=0.5;entryY=0;entryDx=0;entryDy=0;" edge="1" parent="VmHKf9ybYTrdxQRz-RQ7-44" source="VmHKf9ybYTrdxQRz-RQ7-115" target="VmHKf9ybYTrdxQRz-RQ7-117">
          <mxGeometry relative="1" as="geometry" />
        </mxCell>
        <mxCell id="VmHKf9ybYTrdxQRz-RQ7-115" value="Передача адреса RTC + R/W в режиме чтения (1 байт) по RASP_SDA&lt;span style=&quot;color: rgba(0, 0, 0, 0); font-family: monospace; font-size: 0px; text-align: start; text-wrap: nowrap;&quot;&gt;%3CmxGraphModel%3E%3Croot%3E%3CmxCell%20id%3D%220%22%2F%3E%3CmxCell%20id%3D%221%22%20parent%3D%220%22%2F%3E%3CmxCell%20id%3D%222%22%20value%3D%22%D0%A3%D1%81%D1%82%D0%B0%D0%BD%D0%BE%D0%B2%D0%BA%D0%B0%20%D1%81%D1%82%D0%B0%D1%80%D0%BE%D0%B2%D0%BE%D0%B3%D0%BE%20%D1%83%D1%81%D0%BB%D0%BE%D0%B2%D0%B8%D1%8F%20%D0%BD%D0%B0%26amp%3Bnbsp%3B%20RASP_SDA%26lt%3Bspan%20style%3D%26quot%3Btext-wrap%3A%20nowrap%3B%20color%3A%20rgba(0%2C%200%2C%200%2C%200)%3B%20font-family%3A%20monospace%3B%20font-size%3A%200px%3B%20text-align%3A%20start%3B%26quot%3B%26gt%3B%253CmxGraphModel%253E%253Croot%253E%253CmxCell%2520id%253D%25220%2522%252F%253E%253CmxCell%2520id%253D%25221%2522%2520parent%253D%25220%2522%252F%253E%253CmxCell%2520id%253D%25222%2522%2520value%253D%2522%25D0%259E%25D1%2582%25D0%25BF%25D1%2580%25D0%25B0%25D0%25B2%25D0%25BA%25D0%25B0%2520%25D0%25BA%25D0%25BE%25D0%25BC%25D0%25B0%25D0%25BD%25D0%25B4%25D1%258B%2520%25D0%25B4%25D0%25BB%25D1%258F%2520%25D1%2582%25D0%25B5%25D1%2581%25D1%2582%25D0%25B0%2520RASP_POW%2522%2520style%253D%2522shape%253Dprocess%253BwhiteSpace%253Dwrap%253Bhtml%253D1%253BbackgroundOutline%253D1%253B%2522%2520vertex%253D%25221%2522%2520parent%253D%25221%2522%253E%253CmxGeometry%2520x%253D%252275%2522%2520y%253D%25221280%2522%2520width%253D%2522120%2522%2520height%253D%252260%2522%2520as%253D%2522geometry%2522%252F%253E%253C%252FmxCell%253E%253C%252Froot%253E%253C%252FmxGraphModel%253E%26lt%3B%2Fspan%26gt%3B%22%20style%3D%22shape%3Dprocess%3BwhiteSpace%3Dwrap%3Bhtml%3D1%3BbackgroundOutline%3D1%3B%22%20vertex%3D%221%22%20parent%3D%221%22%3E%3CmxGeometry%20x%3D%2275%22%20y%3D%221694%22%20width%3D%22120%22%20height%3D%2260%22%20as%3D%22geometry%22%2F%3E%3C%2FmxCell%3E%3C%2Froot%3E%3C%2FmxGraphModel%3E&lt;/span&gt;&lt;span style=&quot;color: rgba(0, 0, 0, 0); font-family: monospace; font-size: 0px; text-align: start; text-wrap: nowrap;&quot;&gt;%3CmxGraphModel%3E%3Croot%3E%3CmxCell%20id%3D%220%22%2F%3E%3CmxCell%20id%3D%221%22%20parent%3D%220%22%2F%3E%3CmxCell%20id%3D%222%22%20value%3D%22%D0%A3%D1%81%D1%82%D0%B0%D0%BD%D0%BE%D0%B2%D0%BA%D0%B0%20%D1%81%D1%82%D0%B0%D1%80%D0%BE%D0%B2%D0%BE%D0%B3%D0%BE%20%D1%83%D1%81%D0%BB%D0%BE%D0%B2%D0%B8%D1%8F%20%D0%BD%D0%B0%26amp%3Bnbsp%3B%20RASP_SDA%26lt%3Bspan%20style%3D%26quot%3Btext-wrap%3A%20nowrap%3B%20color%3A%20rgba(0%2C%200%2C%200%2C%200)%3B%20font-family%3A%20monospace%3B%20font-size%3A%200px%3B%20text-align%3A%20start%3B%26quot%3B%26gt%3B%253CmxGraphModel%253E%253Croot%253E%253CmxCell%2520id%253D%25220%2522%252F%253E%253CmxCell%2520id%253D%25221%2522%2520parent%253D%25220%2522%252F%253E%253CmxCell%2520id%253D%25222%2522%2520value%253D%2522%25D0%259E%25D1%2582%25D0%25BF%25D1%2580%25D0%25B0%25D0%25B2%25D0%25BA%25D0%25B0%2520%25D0%25BA%25D0%25BE%25D0%25BC%25D0%25B0%25D0%25BD%25D0%25B4%25D1%258B%2520%25D0%25B4%25D0%25BB%25D1%258F%2520%25D1%2582%25D0%25B5%25D1%2581%25D1%2582%25D0%25B0%2520RASP_POW%2522%2520style%253D%2522shape%253Dprocess%253BwhiteSpace%253Dwrap%253Bhtml%253D1%253BbackgroundOutline%253D1%253B%2522%2520vertex%253D%25221%2522%2520parent%253D%25221%2522%253E%253CmxGeometry%2520x%253D%252275%2522%2520y%253D%25221280%2522%2520width%253D%2522120%2522%2520height%253D%252260%2522%2520as%253D%2522geometry%2522%252F%253E%253C%252FmxCell%253E%253C%252Froot%253E%253C%252FmxGraphModel%253E%26lt%3B%2Fspan%26gt%3B%22%20style%3D%22shape%3Dprocess%3BwhiteSpace%3Dwrap%3Bhtml%3D1%3BbackgroundOutline%3D1%3B%22%20vertex%3D%221%22%20parent%3D%221%22%3E%3CmxGeometry%20x%3D%2275%22%20y%3D%221694%22%20width%3D%22120%22%20height%3D%2260%22%20as%3D%22geometry%22%2F%3E%3C%2FmxCell%3E%3C%2Froot%3E%3C%2FmxGraphModel%3E&lt;/span&gt;" style="shape=process;whiteSpace=wrap;html=1;backgroundOutline=1;" vertex="1" parent="VmHKf9ybYTrdxQRz-RQ7-44">
          <mxGeometry x="45" y="1130" width="120" height="80" as="geometry" />
        </mxCell>
        <mxCell id="VmHKf9ybYTrdxQRz-RQ7-120" style="edgeStyle=orthogonalEdgeStyle;rounded=0;orthogonalLoop=1;jettySize=auto;html=1;entryX=0.5;entryY=0;entryDx=0;entryDy=0;" edge="1" parent="VmHKf9ybYTrdxQRz-RQ7-44" source="VmHKf9ybYTrdxQRz-RQ7-117" target="VmHKf9ybYTrdxQRz-RQ7-119">
          <mxGeometry relative="1" as="geometry" />
        </mxCell>
        <mxCell id="VmHKf9ybYTrdxQRz-RQ7-117" value="Тестирование необходимых функций RTC&amp;nbsp;" style="shape=process;whiteSpace=wrap;html=1;backgroundOutline=1;" vertex="1" parent="VmHKf9ybYTrdxQRz-RQ7-44">
          <mxGeometry x="45" y="1230" width="120" height="60" as="geometry" />
        </mxCell>
        <mxCell id="VmHKf9ybYTrdxQRz-RQ7-119" value="Вывод результата" style="shape=process;whiteSpace=wrap;html=1;backgroundOutline=1;" vertex="1" parent="VmHKf9ybYTrdxQRz-RQ7-44">
          <mxGeometry x="230" y="1290" width="120" height="30" as="geometry" />
        </mxCell>
        <mxCell id="VmHKf9ybYTrdxQRz-RQ7-97" value="Блок тестирования CTP" style="swimlane;html=1;startSize=31;horizontal=0;" vertex="1" parent="dNxyNK7c78bLwvsdeMH5-19">
          <mxGeometry x="20" y="2160" width="770" height="170" as="geometry" />
        </mxCell>
        <mxCell id="VmHKf9ybYTrdxQRz-RQ7-127" style="edgeStyle=orthogonalEdgeStyle;rounded=0;orthogonalLoop=1;jettySize=auto;html=1;entryX=0.5;entryY=0;entryDx=0;entryDy=0;" edge="1" parent="VmHKf9ybYTrdxQRz-RQ7-97" source="VmHKf9ybYTrdxQRz-RQ7-125" target="VmHKf9ybYTrdxQRz-RQ7-126">
          <mxGeometry relative="1" as="geometry" />
        </mxCell>
        <mxCell id="VmHKf9ybYTrdxQRz-RQ7-125" value="Проверка I2C, INT, nRST для CTP c помощью передачи данных с одных входов МК на другие&amp;nbsp;" style="shape=process;whiteSpace=wrap;html=1;backgroundOutline=1;" vertex="1" parent="VmHKf9ybYTrdxQRz-RQ7-97">
          <mxGeometry x="45" y="20" width="120" height="110" as="geometry" />
        </mxCell>
        <mxCell id="VmHKf9ybYTrdxQRz-RQ7-126" value="Вывод результата" style="shape=process;whiteSpace=wrap;html=1;backgroundOutline=1;" vertex="1" parent="VmHKf9ybYTrdxQRz-RQ7-97">
          <mxGeometry x="230" y="130" width="120" height="30" as="geometry" />
        </mxCell>
        <mxCell id="VmHKf9ybYTrdxQRz-RQ7-103" value="Блок тестирования ABORT_SW" style="swimlane;html=1;startSize=31;horizontal=0;" vertex="1" parent="dNxyNK7c78bLwvsdeMH5-19">
          <mxGeometry x="20" y="2330" width="770" height="290" as="geometry" />
        </mxCell>
        <mxCell id="VmHKf9ybYTrdxQRz-RQ7-131" style="edgeStyle=orthogonalEdgeStyle;rounded=0;orthogonalLoop=1;jettySize=auto;html=1;entryX=0.5;entryY=0;entryDx=0;entryDy=0;" edge="1" parent="VmHKf9ybYTrdxQRz-RQ7-103" source="VmHKf9ybYTrdxQRz-RQ7-128" target="VmHKf9ybYTrdxQRz-RQ7-130">
          <mxGeometry relative="1" as="geometry" />
        </mxCell>
        <mxCell id="VmHKf9ybYTrdxQRz-RQ7-128" value="Замыкание кнопки ABORT" style="shape=process;whiteSpace=wrap;html=1;backgroundOutline=1;" vertex="1" parent="VmHKf9ybYTrdxQRz-RQ7-103">
          <mxGeometry x="45" y="20" width="120" height="60" as="geometry" />
        </mxCell>
        <mxCell id="VmHKf9ybYTrdxQRz-RQ7-133" value="" style="edgeStyle=orthogonalEdgeStyle;rounded=0;orthogonalLoop=1;jettySize=auto;html=1;" edge="1" parent="VmHKf9ybYTrdxQRz-RQ7-103" source="VmHKf9ybYTrdxQRz-RQ7-130" target="VmHKf9ybYTrdxQRz-RQ7-132">
          <mxGeometry relative="1" as="geometry" />
        </mxCell>
        <mxCell id="VmHKf9ybYTrdxQRz-RQ7-130" value="Регистрируется низкий уровень на&amp;nbsp;ABORT_SW" style="shape=process;whiteSpace=wrap;html=1;backgroundOutline=1;" vertex="1" parent="VmHKf9ybYTrdxQRz-RQ7-103">
          <mxGeometry x="425" y="70" width="120" height="50" as="geometry" />
        </mxCell>
        <mxCell id="VmHKf9ybYTrdxQRz-RQ7-136" style="edgeStyle=orthogonalEdgeStyle;rounded=0;orthogonalLoop=1;jettySize=auto;html=1;entryX=0.5;entryY=0;entryDx=0;entryDy=0;" edge="1" parent="VmHKf9ybYTrdxQRz-RQ7-103" source="VmHKf9ybYTrdxQRz-RQ7-132" target="VmHKf9ybYTrdxQRz-RQ7-134">
          <mxGeometry relative="1" as="geometry" />
        </mxCell>
        <mxCell id="VmHKf9ybYTrdxQRz-RQ7-132" value="Отправка результата на CMCU_STM_TX" style="shape=process;whiteSpace=wrap;html=1;backgroundOutline=1;" vertex="1" parent="VmHKf9ybYTrdxQRz-RQ7-103">
          <mxGeometry x="425" y="140" width="120" height="50" as="geometry" />
        </mxCell>
        <mxCell id="VmHKf9ybYTrdxQRz-RQ7-137" style="edgeStyle=orthogonalEdgeStyle;rounded=0;orthogonalLoop=1;jettySize=auto;html=1;entryX=0.5;entryY=0;entryDx=0;entryDy=0;" edge="1" parent="VmHKf9ybYTrdxQRz-RQ7-103" source="VmHKf9ybYTrdxQRz-RQ7-134" target="VmHKf9ybYTrdxQRz-RQ7-135">
          <mxGeometry relative="1" as="geometry" />
        </mxCell>
        <mxCell id="VmHKf9ybYTrdxQRz-RQ7-134" value="Получение результата на CMCU_STM_TX" style="shape=process;whiteSpace=wrap;html=1;backgroundOutline=1;" vertex="1" parent="VmHKf9ybYTrdxQRz-RQ7-103">
          <mxGeometry x="45" y="190" width="120" height="50" as="geometry" />
        </mxCell>
        <mxCell id="VmHKf9ybYTrdxQRz-RQ7-135" value="Вывод результата" style="shape=process;whiteSpace=wrap;html=1;backgroundOutline=1;" vertex="1" parent="VmHKf9ybYTrdxQRz-RQ7-103">
          <mxGeometry x="230" y="240" width="120" height="30" as="geometry" />
        </mxCell>
        <mxCell id="VmHKf9ybYTrdxQRz-RQ7-102" value="Блок тестирования SPI RFID" style="swimlane;html=1;startSize=31;horizontal=0;" vertex="1" parent="dNxyNK7c78bLwvsdeMH5-19">
          <mxGeometry x="20" y="2620" width="770" height="700" as="geometry" />
        </mxCell>
        <mxCell id="VmHKf9ybYTrdxQRz-RQ7-145" value="" style="edgeStyle=orthogonalEdgeStyle;rounded=0;orthogonalLoop=1;jettySize=auto;html=1;entryX=0.5;entryY=0;entryDx=0;entryDy=0;" edge="1" parent="VmHKf9ybYTrdxQRz-RQ7-102" source="VmHKf9ybYTrdxQRz-RQ7-142" target="VmHKf9ybYTrdxQRz-RQ7-144">
          <mxGeometry relative="1" as="geometry" />
        </mxCell>
        <mxCell id="VmHKf9ybYTrdxQRz-RQ7-151" value="UART RPI комманда" style="edgeLabel;html=1;align=center;verticalAlign=middle;resizable=0;points=[];" vertex="1" connectable="0" parent="VmHKf9ybYTrdxQRz-RQ7-145">
          <mxGeometry x="-0.882" relative="1" as="geometry">
            <mxPoint x="40" as="offset" />
          </mxGeometry>
        </mxCell>
        <mxCell id="VmHKf9ybYTrdxQRz-RQ7-142" value="Запуск тестирования SPI" style="shape=process;whiteSpace=wrap;html=1;backgroundOutline=1;" vertex="1" parent="VmHKf9ybYTrdxQRz-RQ7-102">
          <mxGeometry x="45" y="20" width="120" height="40" as="geometry" />
        </mxCell>
        <mxCell id="VmHKf9ybYTrdxQRz-RQ7-147" style="edgeStyle=orthogonalEdgeStyle;rounded=0;orthogonalLoop=1;jettySize=auto;html=1;entryX=0.5;entryY=0;entryDx=0;entryDy=0;" edge="1" parent="VmHKf9ybYTrdxQRz-RQ7-102" source="VmHKf9ybYTrdxQRz-RQ7-144" target="VmHKf9ybYTrdxQRz-RQ7-146">
          <mxGeometry relative="1" as="geometry" />
        </mxCell>
        <mxCell id="VmHKf9ybYTrdxQRz-RQ7-152" value="RFID_MISO&lt;br&gt;SCK&lt;br&gt;NSS" style="edgeLabel;html=1;align=center;verticalAlign=middle;resizable=0;points=[];" vertex="1" connectable="0" parent="VmHKf9ybYTrdxQRz-RQ7-147">
          <mxGeometry x="-0.8407" relative="1" as="geometry">
            <mxPoint x="-9" as="offset" />
          </mxGeometry>
        </mxCell>
        <mxCell id="VmHKf9ybYTrdxQRz-RQ7-144" value="Отправка данных по SPI" style="shape=process;whiteSpace=wrap;html=1;backgroundOutline=1;" vertex="1" parent="VmHKf9ybYTrdxQRz-RQ7-102">
          <mxGeometry x="421" y="60" width="120" height="40" as="geometry" />
        </mxCell>
        <mxCell id="VmHKf9ybYTrdxQRz-RQ7-149" value="" style="edgeStyle=orthogonalEdgeStyle;rounded=0;orthogonalLoop=1;jettySize=auto;html=1;" edge="1" parent="VmHKf9ybYTrdxQRz-RQ7-102" source="VmHKf9ybYTrdxQRz-RQ7-146" target="VmHKf9ybYTrdxQRz-RQ7-148">
          <mxGeometry relative="1" as="geometry" />
        </mxCell>
        <mxCell id="VmHKf9ybYTrdxQRz-RQ7-146" value="Проверка отправленных данных и частоты SCK" style="shape=process;whiteSpace=wrap;html=1;backgroundOutline=1;" vertex="1" parent="VmHKf9ybYTrdxQRz-RQ7-102">
          <mxGeometry x="45" y="100" width="120" height="60" as="geometry" />
        </mxCell>
        <mxCell id="VmHKf9ybYTrdxQRz-RQ7-153" style="edgeStyle=orthogonalEdgeStyle;rounded=0;orthogonalLoop=1;jettySize=auto;html=1;entryX=0.5;entryY=0;entryDx=0;entryDy=0;" edge="1" parent="VmHKf9ybYTrdxQRz-RQ7-102" source="VmHKf9ybYTrdxQRz-RQ7-148" target="VmHKf9ybYTrdxQRz-RQ7-150">
          <mxGeometry relative="1" as="geometry" />
        </mxCell>
        <mxCell id="VmHKf9ybYTrdxQRz-RQ7-154" value="RFID_MOSI&lt;br&gt;SCK&lt;br&gt;NSS&lt;div&gt;&lt;span style=&quot;font-size: 12px; text-wrap: wrap; background-color: rgb(251, 251, 251);&quot;&gt;IRQ&lt;/span&gt;&lt;br&gt;&lt;/div&gt;" style="edgeLabel;html=1;align=center;verticalAlign=middle;resizable=0;points=[];" vertex="1" connectable="0" parent="VmHKf9ybYTrdxQRz-RQ7-153">
          <mxGeometry x="-0.8078" y="1" relative="1" as="geometry">
            <mxPoint as="offset" />
          </mxGeometry>
        </mxCell>
        <mxCell id="VmHKf9ybYTrdxQRz-RQ7-148" value="Эмуляция работы RFID" style="shape=process;whiteSpace=wrap;html=1;backgroundOutline=1;" vertex="1" parent="VmHKf9ybYTrdxQRz-RQ7-102">
          <mxGeometry x="45" y="190" width="120" height="30" as="geometry" />
        </mxCell>
        <mxCell id="VmHKf9ybYTrdxQRz-RQ7-156" style="edgeStyle=orthogonalEdgeStyle;rounded=0;orthogonalLoop=1;jettySize=auto;html=1;exitX=0.5;exitY=1;exitDx=0;exitDy=0;" edge="1" parent="VmHKf9ybYTrdxQRz-RQ7-102" source="VmHKf9ybYTrdxQRz-RQ7-150" target="VmHKf9ybYTrdxQRz-RQ7-155">
          <mxGeometry relative="1" as="geometry" />
        </mxCell>
        <mxCell id="VmHKf9ybYTrdxQRz-RQ7-161" style="edgeStyle=orthogonalEdgeStyle;rounded=0;orthogonalLoop=1;jettySize=auto;html=1;exitX=0.5;exitY=1;exitDx=0;exitDy=0;entryX=0.5;entryY=1;entryDx=0;entryDy=0;" edge="1" parent="VmHKf9ybYTrdxQRz-RQ7-102" source="VmHKf9ybYTrdxQRz-RQ7-150" target="VmHKf9ybYTrdxQRz-RQ7-148">
          <mxGeometry relative="1" as="geometry" />
        </mxCell>
        <mxCell id="VmHKf9ybYTrdxQRz-RQ7-150" value="Чтение и проверка данных&amp;nbsp;" style="shape=process;whiteSpace=wrap;html=1;backgroundOutline=1;" vertex="1" parent="VmHKf9ybYTrdxQRz-RQ7-102">
          <mxGeometry x="421" y="230" width="120" height="40" as="geometry" />
        </mxCell>
        <mxCell id="VmHKf9ybYTrdxQRz-RQ7-158" style="edgeStyle=orthogonalEdgeStyle;rounded=0;orthogonalLoop=1;jettySize=auto;html=1;entryX=0.5;entryY=0;entryDx=0;entryDy=0;" edge="1" parent="VmHKf9ybYTrdxQRz-RQ7-102" source="VmHKf9ybYTrdxQRz-RQ7-155" target="VmHKf9ybYTrdxQRz-RQ7-157">
          <mxGeometry relative="1" as="geometry" />
        </mxCell>
        <mxCell id="VmHKf9ybYTrdxQRz-RQ7-163" value="UART RPI комманда" style="edgeLabel;html=1;align=center;verticalAlign=middle;resizable=0;points=[];" vertex="1" connectable="0" parent="VmHKf9ybYTrdxQRz-RQ7-158">
          <mxGeometry x="-0.6014" y="-1" relative="1" as="geometry">
            <mxPoint as="offset" />
          </mxGeometry>
        </mxCell>
        <mxCell id="VmHKf9ybYTrdxQRz-RQ7-155" value="Отправка результата на CMCU_STM_TX" style="shape=process;whiteSpace=wrap;html=1;backgroundOutline=1;" vertex="1" parent="VmHKf9ybYTrdxQRz-RQ7-102">
          <mxGeometry x="421" y="310" width="120" height="50" as="geometry" />
        </mxCell>
        <mxCell id="VmHKf9ybYTrdxQRz-RQ7-162" style="edgeStyle=orthogonalEdgeStyle;rounded=0;orthogonalLoop=1;jettySize=auto;html=1;entryX=0.5;entryY=0;entryDx=0;entryDy=0;" edge="1" parent="VmHKf9ybYTrdxQRz-RQ7-102" source="VmHKf9ybYTrdxQRz-RQ7-157" target="VmHKf9ybYTrdxQRz-RQ7-159">
          <mxGeometry relative="1" as="geometry" />
        </mxCell>
        <mxCell id="VmHKf9ybYTrdxQRz-RQ7-157" value="Получение результата на CMCU_STM_TX" style="shape=process;whiteSpace=wrap;html=1;backgroundOutline=1;" vertex="1" parent="VmHKf9ybYTrdxQRz-RQ7-102">
          <mxGeometry x="45" y="360" width="120" height="50" as="geometry" />
        </mxCell>
        <mxCell id="VmHKf9ybYTrdxQRz-RQ7-166" style="edgeStyle=orthogonalEdgeStyle;rounded=0;orthogonalLoop=1;jettySize=auto;html=1;entryX=0.5;entryY=0;entryDx=0;entryDy=0;" edge="1" parent="VmHKf9ybYTrdxQRz-RQ7-102" source="VmHKf9ybYTrdxQRz-RQ7-159" target="VmHKf9ybYTrdxQRz-RQ7-165">
          <mxGeometry relative="1" as="geometry" />
        </mxCell>
        <mxCell id="VmHKf9ybYTrdxQRz-RQ7-167" value="UART RPI комманда" style="edgeLabel;html=1;align=center;verticalAlign=middle;resizable=0;points=[];" vertex="1" connectable="0" parent="VmHKf9ybYTrdxQRz-RQ7-166">
          <mxGeometry x="-0.7537" y="-2" relative="1" as="geometry">
            <mxPoint x="19" y="-2" as="offset" />
          </mxGeometry>
        </mxCell>
        <mxCell id="VmHKf9ybYTrdxQRz-RQ7-159" value="Проверка RST" style="shape=process;whiteSpace=wrap;html=1;backgroundOutline=1;" vertex="1" parent="VmHKf9ybYTrdxQRz-RQ7-102">
          <mxGeometry x="45" y="430" width="120" height="50" as="geometry" />
        </mxCell>
        <mxCell id="VmHKf9ybYTrdxQRz-RQ7-169" style="edgeStyle=orthogonalEdgeStyle;rounded=0;orthogonalLoop=1;jettySize=auto;html=1;entryX=0.5;entryY=0;entryDx=0;entryDy=0;" edge="1" parent="VmHKf9ybYTrdxQRz-RQ7-102" source="VmHKf9ybYTrdxQRz-RQ7-165" target="VmHKf9ybYTrdxQRz-RQ7-168">
          <mxGeometry relative="1" as="geometry" />
        </mxCell>
        <mxCell id="VmHKf9ybYTrdxQRz-RQ7-165" value="Установка уровня на RST" style="shape=process;whiteSpace=wrap;html=1;backgroundOutline=1;" vertex="1" parent="VmHKf9ybYTrdxQRz-RQ7-102">
          <mxGeometry x="421" y="480" width="120" height="50" as="geometry" />
        </mxCell>
        <mxCell id="VmHKf9ybYTrdxQRz-RQ7-171" style="edgeStyle=orthogonalEdgeStyle;rounded=0;orthogonalLoop=1;jettySize=auto;html=1;entryX=0.5;entryY=0;entryDx=0;entryDy=0;" edge="1" parent="VmHKf9ybYTrdxQRz-RQ7-102" source="VmHKf9ybYTrdxQRz-RQ7-168" target="VmHKf9ybYTrdxQRz-RQ7-170">
          <mxGeometry relative="1" as="geometry" />
        </mxCell>
        <mxCell id="VmHKf9ybYTrdxQRz-RQ7-175" style="edgeStyle=orthogonalEdgeStyle;rounded=0;orthogonalLoop=1;jettySize=auto;html=1;entryX=0.5;entryY=0;entryDx=0;entryDy=0;" edge="1" parent="VmHKf9ybYTrdxQRz-RQ7-102" source="VmHKf9ybYTrdxQRz-RQ7-168" target="VmHKf9ybYTrdxQRz-RQ7-174">
          <mxGeometry relative="1" as="geometry" />
        </mxCell>
        <mxCell id="VmHKf9ybYTrdxQRz-RQ7-168" value="Сравнение RST с нужным уровнем" style="shape=process;whiteSpace=wrap;html=1;backgroundOutline=1;" vertex="1" parent="VmHKf9ybYTrdxQRz-RQ7-102">
          <mxGeometry x="45" y="530" width="120" height="50" as="geometry" />
        </mxCell>
        <mxCell id="VmHKf9ybYTrdxQRz-RQ7-170" value="Сброс RST" style="shape=process;whiteSpace=wrap;html=1;backgroundOutline=1;" vertex="1" parent="VmHKf9ybYTrdxQRz-RQ7-102">
          <mxGeometry x="421" y="580" width="120" height="20" as="geometry" />
        </mxCell>
        <mxCell id="VmHKf9ybYTrdxQRz-RQ7-177" style="edgeStyle=orthogonalEdgeStyle;rounded=0;orthogonalLoop=1;jettySize=auto;html=1;entryX=0.5;entryY=0;entryDx=0;entryDy=0;" edge="1" parent="VmHKf9ybYTrdxQRz-RQ7-102" source="VmHKf9ybYTrdxQRz-RQ7-174" target="VmHKf9ybYTrdxQRz-RQ7-176">
          <mxGeometry relative="1" as="geometry" />
        </mxCell>
        <mxCell id="VmHKf9ybYTrdxQRz-RQ7-174" value="Формирование отчета с результатами&amp;nbsp;" style="shape=process;whiteSpace=wrap;html=1;backgroundOutline=1;" vertex="1" parent="VmHKf9ybYTrdxQRz-RQ7-102">
          <mxGeometry x="45" y="610" width="120" height="50" as="geometry" />
        </mxCell>
        <mxCell id="VmHKf9ybYTrdxQRz-RQ7-176" value="Вывод результата" style="shape=process;whiteSpace=wrap;html=1;backgroundOutline=1;" vertex="1" parent="VmHKf9ybYTrdxQRz-RQ7-102">
          <mxGeometry x="231" y="660" width="120" height="30" as="geometry" />
        </mxCell>
        <mxCell id="VmHKf9ybYTrdxQRz-RQ7-101" value="Блок тестирования&lt;div&gt;&amp;nbsp;Alcotester&lt;/div&gt;" style="swimlane;html=1;startSize=31;horizontal=0;" vertex="1" parent="dNxyNK7c78bLwvsdeMH5-19">
          <mxGeometry x="20" y="3320" width="770" height="180" as="geometry" />
        </mxCell>
        <mxCell id="VmHKf9ybYTrdxQRz-RQ7-190" style="edgeStyle=orthogonalEdgeStyle;rounded=0;orthogonalLoop=1;jettySize=auto;html=1;entryX=0.5;entryY=1;entryDx=0;entryDy=0;" edge="1" parent="VmHKf9ybYTrdxQRz-RQ7-101" source="VmHKf9ybYTrdxQRz-RQ7-181" target="VmHKf9ybYTrdxQRz-RQ7-183">
          <mxGeometry relative="1" as="geometry" />
        </mxCell>
        <mxCell id="VmHKf9ybYTrdxQRz-RQ7-191" style="edgeStyle=orthogonalEdgeStyle;rounded=0;orthogonalLoop=1;jettySize=auto;html=1;entryX=0.5;entryY=0;entryDx=0;entryDy=0;" edge="1" parent="VmHKf9ybYTrdxQRz-RQ7-101" source="VmHKf9ybYTrdxQRz-RQ7-181" target="VmHKf9ybYTrdxQRz-RQ7-189">
          <mxGeometry relative="1" as="geometry" />
        </mxCell>
        <mxCell id="VmHKf9ybYTrdxQRz-RQ7-181" value="Обмен данными по UART c проверкой" style="shape=process;whiteSpace=wrap;html=1;backgroundOutline=1;" vertex="1" parent="VmHKf9ybYTrdxQRz-RQ7-101">
          <mxGeometry x="425" y="60" width="120" height="50" as="geometry" />
        </mxCell>
        <mxCell id="VmHKf9ybYTrdxQRz-RQ7-184" style="edgeStyle=orthogonalEdgeStyle;rounded=0;orthogonalLoop=1;jettySize=auto;html=1;entryX=0.5;entryY=0;entryDx=0;entryDy=0;" edge="1" parent="VmHKf9ybYTrdxQRz-RQ7-101" source="VmHKf9ybYTrdxQRz-RQ7-183" target="VmHKf9ybYTrdxQRz-RQ7-181">
          <mxGeometry relative="1" as="geometry" />
        </mxCell>
        <mxCell id="VmHKf9ybYTrdxQRz-RQ7-183" value="Обмен данными по UART с проверкой" style="shape=process;whiteSpace=wrap;html=1;backgroundOutline=1;" vertex="1" parent="VmHKf9ybYTrdxQRz-RQ7-101">
          <mxGeometry x="45" y="10" width="120" height="50" as="geometry" />
        </mxCell>
        <mxCell id="VmHKf9ybYTrdxQRz-RQ7-193" style="edgeStyle=orthogonalEdgeStyle;rounded=0;orthogonalLoop=1;jettySize=auto;html=1;entryX=0.5;entryY=0;entryDx=0;entryDy=0;" edge="1" parent="VmHKf9ybYTrdxQRz-RQ7-101" source="VmHKf9ybYTrdxQRz-RQ7-189" target="VmHKf9ybYTrdxQRz-RQ7-192">
          <mxGeometry relative="1" as="geometry" />
        </mxCell>
        <mxCell id="VmHKf9ybYTrdxQRz-RQ7-189" value="Получение результатов" style="shape=process;whiteSpace=wrap;html=1;backgroundOutline=1;" vertex="1" parent="VmHKf9ybYTrdxQRz-RQ7-101">
          <mxGeometry x="45" y="110" width="120" height="30" as="geometry" />
        </mxCell>
        <mxCell id="VmHKf9ybYTrdxQRz-RQ7-192" value="Вывод результата" style="shape=process;whiteSpace=wrap;html=1;backgroundOutline=1;" vertex="1" parent="VmHKf9ybYTrdxQRz-RQ7-101">
          <mxGeometry x="231" y="147" width="120" height="30" as="geometry" />
        </mxCell>
        <mxCell id="VmHKf9ybYTrdxQRz-RQ7-202" value="Проверка UART между&amp;nbsp;&lt;div&gt;CMCU и NIBP&lt;/div&gt;" style="swimlane;html=1;startSize=31;horizontal=0;" vertex="1" parent="dNxyNK7c78bLwvsdeMH5-19">
          <mxGeometry x="20" y="3500" width="770" height="270" as="geometry" />
        </mxCell>
        <mxCell id="VmHKf9ybYTrdxQRz-RQ7-207" style="edgeStyle=orthogonalEdgeStyle;rounded=0;orthogonalLoop=1;jettySize=auto;html=1;entryX=0.5;entryY=0;entryDx=0;entryDy=0;" edge="1" parent="VmHKf9ybYTrdxQRz-RQ7-202" source="VmHKf9ybYTrdxQRz-RQ7-203" target="VmHKf9ybYTrdxQRz-RQ7-205">
          <mxGeometry relative="1" as="geometry" />
        </mxCell>
        <mxCell id="VmHKf9ybYTrdxQRz-RQ7-203" value="Запуск проверки UART" style="shape=process;whiteSpace=wrap;html=1;backgroundOutline=1;" vertex="1" parent="VmHKf9ybYTrdxQRz-RQ7-202">
          <mxGeometry x="45" y="10" width="120" height="40" as="geometry" />
        </mxCell>
        <mxCell id="VmHKf9ybYTrdxQRz-RQ7-209" value="" style="edgeStyle=orthogonalEdgeStyle;rounded=0;orthogonalLoop=1;jettySize=auto;html=1;" edge="1" parent="VmHKf9ybYTrdxQRz-RQ7-202" source="VmHKf9ybYTrdxQRz-RQ7-205" target="VmHKf9ybYTrdxQRz-RQ7-208">
          <mxGeometry relative="1" as="geometry" />
        </mxCell>
        <mxCell id="VmHKf9ybYTrdxQRz-RQ7-205" value="Обмен данными по UART с проверкой" style="shape=process;whiteSpace=wrap;html=1;backgroundOutline=1;" vertex="1" parent="VmHKf9ybYTrdxQRz-RQ7-202">
          <mxGeometry x="411" y="50" width="120" height="40" as="geometry" />
        </mxCell>
        <mxCell id="VmHKf9ybYTrdxQRz-RQ7-210" style="edgeStyle=orthogonalEdgeStyle;rounded=0;orthogonalLoop=1;jettySize=auto;html=1;" edge="1" parent="VmHKf9ybYTrdxQRz-RQ7-202" source="VmHKf9ybYTrdxQRz-RQ7-208" target="VmHKf9ybYTrdxQRz-RQ7-205">
          <mxGeometry relative="1" as="geometry" />
        </mxCell>
        <mxCell id="VmHKf9ybYTrdxQRz-RQ7-212" style="edgeStyle=orthogonalEdgeStyle;rounded=0;orthogonalLoop=1;jettySize=auto;html=1;entryX=0.5;entryY=0;entryDx=0;entryDy=0;" edge="1" parent="VmHKf9ybYTrdxQRz-RQ7-202" source="VmHKf9ybYTrdxQRz-RQ7-208" target="VmHKf9ybYTrdxQRz-RQ7-211">
          <mxGeometry relative="1" as="geometry" />
        </mxCell>
        <mxCell id="VmHKf9ybYTrdxQRz-RQ7-208" value="Обмен данными по UART с проверкой" style="shape=process;whiteSpace=wrap;html=1;backgroundOutline=1;" vertex="1" parent="VmHKf9ybYTrdxQRz-RQ7-202">
          <mxGeometry x="621" y="100" width="120" height="40" as="geometry" />
        </mxCell>
        <mxCell id="VmHKf9ybYTrdxQRz-RQ7-215" value="" style="edgeStyle=orthogonalEdgeStyle;rounded=0;orthogonalLoop=1;jettySize=auto;html=1;entryX=0.5;entryY=0;entryDx=0;entryDy=0;" edge="1" parent="VmHKf9ybYTrdxQRz-RQ7-202" source="VmHKf9ybYTrdxQRz-RQ7-211" target="VmHKf9ybYTrdxQRz-RQ7-214">
          <mxGeometry relative="1" as="geometry" />
        </mxCell>
        <mxCell id="VmHKf9ybYTrdxQRz-RQ7-211" value="Отправка результатов на МК стенда" style="shape=process;whiteSpace=wrap;html=1;backgroundOutline=1;" vertex="1" parent="VmHKf9ybYTrdxQRz-RQ7-202">
          <mxGeometry x="411" y="140" width="120" height="40" as="geometry" />
        </mxCell>
        <mxCell id="VmHKf9ybYTrdxQRz-RQ7-217" style="edgeStyle=orthogonalEdgeStyle;rounded=0;orthogonalLoop=1;jettySize=auto;html=1;entryX=0.5;entryY=0;entryDx=0;entryDy=0;" edge="1" parent="VmHKf9ybYTrdxQRz-RQ7-202" source="VmHKf9ybYTrdxQRz-RQ7-214" target="VmHKf9ybYTrdxQRz-RQ7-216">
          <mxGeometry relative="1" as="geometry" />
        </mxCell>
        <mxCell id="VmHKf9ybYTrdxQRz-RQ7-214" value="Получение результатов и отправка отчета" style="shape=process;whiteSpace=wrap;html=1;backgroundOutline=1;" vertex="1" parent="VmHKf9ybYTrdxQRz-RQ7-202">
          <mxGeometry x="45" y="180" width="120" height="50" as="geometry" />
        </mxCell>
        <mxCell id="VmHKf9ybYTrdxQRz-RQ7-216" value="Вывод результата" style="shape=process;whiteSpace=wrap;html=1;backgroundOutline=1;" vertex="1" parent="VmHKf9ybYTrdxQRz-RQ7-202">
          <mxGeometry x="231" y="230" width="120" height="30" as="geometry" />
        </mxCell>
        <mxCell id="VmHKf9ybYTrdxQRz-RQ7-440" style="edgeStyle=orthogonalEdgeStyle;rounded=0;orthogonalLoop=1;jettySize=auto;html=1;exitX=0.5;exitY=1;exitDx=0;exitDy=0;" edge="1" parent="VmHKf9ybYTrdxQRz-RQ7-202" source="VmHKf9ybYTrdxQRz-RQ7-211" target="VmHKf9ybYTrdxQRz-RQ7-211">
          <mxGeometry relative="1" as="geometry" />
        </mxCell>
        <mxCell id="VmHKf9ybYTrdxQRz-RQ7-140" value="Блок тестирования NTC" style="swimlane;html=1;startSize=31;horizontal=0;" vertex="1" parent="dNxyNK7c78bLwvsdeMH5-19">
          <mxGeometry x="20" y="3770" width="770" height="620" as="geometry" />
        </mxCell>
        <mxCell id="VmHKf9ybYTrdxQRz-RQ7-197" style="edgeStyle=orthogonalEdgeStyle;rounded=0;orthogonalLoop=1;jettySize=auto;html=1;entryX=0;entryY=0.5;entryDx=0;entryDy=0;" edge="1" parent="VmHKf9ybYTrdxQRz-RQ7-140" source="VmHKf9ybYTrdxQRz-RQ7-194" target="VmHKf9ybYTrdxQRz-RQ7-196">
          <mxGeometry relative="1" as="geometry" />
        </mxCell>
        <mxCell id="VmHKf9ybYTrdxQRz-RQ7-198" value="UART RPI комманда" style="edgeLabel;html=1;align=center;verticalAlign=middle;resizable=0;points=[];" vertex="1" connectable="0" parent="VmHKf9ybYTrdxQRz-RQ7-197">
          <mxGeometry x="-0.6613" y="1" relative="1" as="geometry">
            <mxPoint x="21" y="1" as="offset" />
          </mxGeometry>
        </mxCell>
        <mxCell id="VmHKf9ybYTrdxQRz-RQ7-194" value="Запуск тестирования NTC" style="shape=process;whiteSpace=wrap;html=1;backgroundOutline=1;" vertex="1" parent="VmHKf9ybYTrdxQRz-RQ7-140">
          <mxGeometry x="45" y="20" width="120" height="40" as="geometry" />
        </mxCell>
        <mxCell id="VmHKf9ybYTrdxQRz-RQ7-200" style="edgeStyle=orthogonalEdgeStyle;rounded=0;orthogonalLoop=1;jettySize=auto;html=1;entryX=0.5;entryY=0;entryDx=0;entryDy=0;" edge="1" parent="VmHKf9ybYTrdxQRz-RQ7-140" source="VmHKf9ybYTrdxQRz-RQ7-196" target="VmHKf9ybYTrdxQRz-RQ7-199">
          <mxGeometry relative="1" as="geometry" />
        </mxCell>
        <mxCell id="VmHKf9ybYTrdxQRz-RQ7-196" value="Запуск тестирования NTC" style="shape=process;whiteSpace=wrap;html=1;backgroundOutline=1;" vertex="1" parent="VmHKf9ybYTrdxQRz-RQ7-140">
          <mxGeometry x="421" y="20" width="120" height="40" as="geometry" />
        </mxCell>
        <mxCell id="VmHKf9ybYTrdxQRz-RQ7-220" value="" style="edgeStyle=orthogonalEdgeStyle;rounded=0;orthogonalLoop=1;jettySize=auto;html=1;" edge="1" parent="VmHKf9ybYTrdxQRz-RQ7-140" source="VmHKf9ybYTrdxQRz-RQ7-199" target="VmHKf9ybYTrdxQRz-RQ7-219">
          <mxGeometry relative="1" as="geometry" />
        </mxCell>
        <mxCell id="VmHKf9ybYTrdxQRz-RQ7-199" value="Проверка подключения датчика" style="shape=process;whiteSpace=wrap;html=1;backgroundOutline=1;" vertex="1" parent="VmHKf9ybYTrdxQRz-RQ7-140">
          <mxGeometry x="621" y="60" width="120" height="40" as="geometry" />
        </mxCell>
        <mxCell id="VmHKf9ybYTrdxQRz-RQ7-222" value="" style="edgeStyle=orthogonalEdgeStyle;rounded=0;orthogonalLoop=1;jettySize=auto;html=1;" edge="1" parent="VmHKf9ybYTrdxQRz-RQ7-140" source="VmHKf9ybYTrdxQRz-RQ7-219" target="VmHKf9ybYTrdxQRz-RQ7-221">
          <mxGeometry relative="1" as="geometry" />
        </mxCell>
        <mxCell id="VmHKf9ybYTrdxQRz-RQ7-219" value="Отправка результа проверки" style="shape=process;whiteSpace=wrap;html=1;backgroundOutline=1;" vertex="1" parent="VmHKf9ybYTrdxQRz-RQ7-140">
          <mxGeometry x="621" y="120" width="120" height="40" as="geometry" />
        </mxCell>
        <mxCell id="VmHKf9ybYTrdxQRz-RQ7-224" value="" style="edgeStyle=orthogonalEdgeStyle;rounded=0;orthogonalLoop=1;jettySize=auto;html=1;entryX=0.5;entryY=0;entryDx=0;entryDy=0;" edge="1" parent="VmHKf9ybYTrdxQRz-RQ7-140" source="VmHKf9ybYTrdxQRz-RQ7-221" target="VmHKf9ybYTrdxQRz-RQ7-223">
          <mxGeometry relative="1" as="geometry" />
        </mxCell>
        <mxCell id="VmHKf9ybYTrdxQRz-RQ7-221" value="Отправка результа проверки" style="shape=process;whiteSpace=wrap;html=1;backgroundOutline=1;" vertex="1" parent="VmHKf9ybYTrdxQRz-RQ7-140">
          <mxGeometry x="421" y="120" width="120" height="40" as="geometry" />
        </mxCell>
        <mxCell id="VmHKf9ybYTrdxQRz-RQ7-226" style="edgeStyle=orthogonalEdgeStyle;rounded=0;orthogonalLoop=1;jettySize=auto;html=1;entryX=0.5;entryY=0;entryDx=0;entryDy=0;" edge="1" parent="VmHKf9ybYTrdxQRz-RQ7-140" source="VmHKf9ybYTrdxQRz-RQ7-223" target="VmHKf9ybYTrdxQRz-RQ7-225">
          <mxGeometry relative="1" as="geometry" />
        </mxCell>
        <mxCell id="VmHKf9ybYTrdxQRz-RQ7-223" value="Обработка результата и подключение нагрузки для температуры 31" style="shape=process;whiteSpace=wrap;html=1;backgroundOutline=1;" vertex="1" parent="VmHKf9ybYTrdxQRz-RQ7-140">
          <mxGeometry x="45" y="160" width="120" height="70" as="geometry" />
        </mxCell>
        <mxCell id="VmHKf9ybYTrdxQRz-RQ7-442" style="edgeStyle=orthogonalEdgeStyle;rounded=0;orthogonalLoop=1;jettySize=auto;html=1;exitX=0.5;exitY=1;exitDx=0;exitDy=0;entryX=0.5;entryY=0;entryDx=0;entryDy=0;" edge="1" parent="VmHKf9ybYTrdxQRz-RQ7-140" source="VmHKf9ybYTrdxQRz-RQ7-225" target="VmHKf9ybYTrdxQRz-RQ7-229">
          <mxGeometry relative="1" as="geometry" />
        </mxCell>
        <mxCell id="VmHKf9ybYTrdxQRz-RQ7-225" value="Считывание значений c АЦП по SPI" style="shape=process;whiteSpace=wrap;html=1;backgroundOutline=1;" vertex="1" parent="VmHKf9ybYTrdxQRz-RQ7-140">
          <mxGeometry x="621" y="220" width="120" height="40" as="geometry" />
        </mxCell>
        <mxCell id="VmHKf9ybYTrdxQRz-RQ7-234" value="" style="edgeStyle=orthogonalEdgeStyle;rounded=0;orthogonalLoop=1;jettySize=auto;html=1;" edge="1" parent="VmHKf9ybYTrdxQRz-RQ7-140" source="VmHKf9ybYTrdxQRz-RQ7-229" target="VmHKf9ybYTrdxQRz-RQ7-233">
          <mxGeometry relative="1" as="geometry" />
        </mxCell>
        <mxCell id="VmHKf9ybYTrdxQRz-RQ7-229" value="Отправка результа&amp;nbsp;" style="shape=process;whiteSpace=wrap;html=1;backgroundOutline=1;" vertex="1" parent="VmHKf9ybYTrdxQRz-RQ7-140">
          <mxGeometry x="621" y="290" width="120" height="40" as="geometry" />
        </mxCell>
        <mxCell id="VmHKf9ybYTrdxQRz-RQ7-237" style="edgeStyle=orthogonalEdgeStyle;rounded=0;orthogonalLoop=1;jettySize=auto;html=1;entryX=0.5;entryY=0;entryDx=0;entryDy=0;" edge="1" parent="VmHKf9ybYTrdxQRz-RQ7-140" source="VmHKf9ybYTrdxQRz-RQ7-233" target="VmHKf9ybYTrdxQRz-RQ7-235">
          <mxGeometry relative="1" as="geometry" />
        </mxCell>
        <mxCell id="VmHKf9ybYTrdxQRz-RQ7-233" value="Отправка результа&amp;nbsp;" style="shape=process;whiteSpace=wrap;html=1;backgroundOutline=1;" vertex="1" parent="VmHKf9ybYTrdxQRz-RQ7-140">
          <mxGeometry x="421" y="290" width="120" height="40" as="geometry" />
        </mxCell>
        <mxCell id="VmHKf9ybYTrdxQRz-RQ7-433" style="edgeStyle=orthogonalEdgeStyle;rounded=0;orthogonalLoop=1;jettySize=auto;html=1;entryX=0.5;entryY=0;entryDx=0;entryDy=0;" edge="1" parent="VmHKf9ybYTrdxQRz-RQ7-140" source="VmHKf9ybYTrdxQRz-RQ7-235" target="VmHKf9ybYTrdxQRz-RQ7-429">
          <mxGeometry relative="1" as="geometry" />
        </mxCell>
        <mxCell id="VmHKf9ybYTrdxQRz-RQ7-235" value="Обработка результата и подключение нагрузки для температуры 43" style="shape=process;whiteSpace=wrap;html=1;backgroundOutline=1;" vertex="1" parent="VmHKf9ybYTrdxQRz-RQ7-140">
          <mxGeometry x="45" y="330" width="120" height="70" as="geometry" />
        </mxCell>
        <mxCell id="VmHKf9ybYTrdxQRz-RQ7-434" style="edgeStyle=orthogonalEdgeStyle;rounded=0;orthogonalLoop=1;jettySize=auto;html=1;exitX=0.5;exitY=1;exitDx=0;exitDy=0;entryX=0.5;entryY=0;entryDx=0;entryDy=0;" edge="1" parent="VmHKf9ybYTrdxQRz-RQ7-140" source="VmHKf9ybYTrdxQRz-RQ7-429" target="VmHKf9ybYTrdxQRz-RQ7-431">
          <mxGeometry relative="1" as="geometry">
            <mxPoint x="671" y="459.9999999999991" as="targetPoint" />
          </mxGeometry>
        </mxCell>
        <mxCell id="VmHKf9ybYTrdxQRz-RQ7-429" value="Считывание значений c АЦП по SPI" style="shape=process;whiteSpace=wrap;html=1;backgroundOutline=1;" vertex="1" parent="VmHKf9ybYTrdxQRz-RQ7-140">
          <mxGeometry x="621" y="400" width="120" height="40" as="geometry" />
        </mxCell>
        <mxCell id="VmHKf9ybYTrdxQRz-RQ7-436" style="edgeStyle=orthogonalEdgeStyle;rounded=0;orthogonalLoop=1;jettySize=auto;html=1;entryX=1;entryY=0.5;entryDx=0;entryDy=0;" edge="1" parent="VmHKf9ybYTrdxQRz-RQ7-140" source="VmHKf9ybYTrdxQRz-RQ7-431" target="VmHKf9ybYTrdxQRz-RQ7-432">
          <mxGeometry relative="1" as="geometry" />
        </mxCell>
        <mxCell id="VmHKf9ybYTrdxQRz-RQ7-431" value="Отправка результа&amp;nbsp;" style="shape=process;whiteSpace=wrap;html=1;backgroundOutline=1;" vertex="1" parent="VmHKf9ybYTrdxQRz-RQ7-140">
          <mxGeometry x="621" y="470" width="120" height="40" as="geometry" />
        </mxCell>
        <mxCell id="VmHKf9ybYTrdxQRz-RQ7-438" style="edgeStyle=orthogonalEdgeStyle;rounded=0;orthogonalLoop=1;jettySize=auto;html=1;entryX=0.5;entryY=0;entryDx=0;entryDy=0;" edge="1" parent="VmHKf9ybYTrdxQRz-RQ7-140" source="VmHKf9ybYTrdxQRz-RQ7-432" target="VmHKf9ybYTrdxQRz-RQ7-437">
          <mxGeometry relative="1" as="geometry" />
        </mxCell>
        <mxCell id="VmHKf9ybYTrdxQRz-RQ7-432" value="Отправка результа&amp;nbsp;" style="shape=process;whiteSpace=wrap;html=1;backgroundOutline=1;" vertex="1" parent="VmHKf9ybYTrdxQRz-RQ7-140">
          <mxGeometry x="411" y="470" width="120" height="40" as="geometry" />
        </mxCell>
        <mxCell id="VmHKf9ybYTrdxQRz-RQ7-441" style="edgeStyle=orthogonalEdgeStyle;rounded=0;orthogonalLoop=1;jettySize=auto;html=1;entryX=0.5;entryY=0;entryDx=0;entryDy=0;" edge="1" parent="VmHKf9ybYTrdxQRz-RQ7-140" source="VmHKf9ybYTrdxQRz-RQ7-437" target="VmHKf9ybYTrdxQRz-RQ7-439">
          <mxGeometry relative="1" as="geometry" />
        </mxCell>
        <mxCell id="VmHKf9ybYTrdxQRz-RQ7-437" value="Обработка результатов и отправка отчета" style="shape=process;whiteSpace=wrap;html=1;backgroundOutline=1;" vertex="1" parent="VmHKf9ybYTrdxQRz-RQ7-140">
          <mxGeometry x="45" y="510" width="120" height="70" as="geometry" />
        </mxCell>
        <mxCell id="VmHKf9ybYTrdxQRz-RQ7-439" value="Вывод результата" style="shape=process;whiteSpace=wrap;html=1;backgroundOutline=1;" vertex="1" parent="VmHKf9ybYTrdxQRz-RQ7-140">
          <mxGeometry x="231" y="580" width="120" height="30" as="geometry" />
        </mxCell>
        <mxCell id="VmHKf9ybYTrdxQRz-RQ7-141" value="Блок тестирования PUMP" style="swimlane;html=1;startSize=31;horizontal=0;" vertex="1" parent="dNxyNK7c78bLwvsdeMH5-19">
          <mxGeometry x="20" y="4390" width="770" height="280" as="geometry" />
        </mxCell>
        <mxCell id="VmHKf9ybYTrdxQRz-RQ7-100" value="Блок тестирования датчика давления" style="swimlane;html=1;startSize=31;horizontal=0;" vertex="1" parent="dNxyNK7c78bLwvsdeMH5-19">
          <mxGeometry x="20" y="4670" width="770" height="430" as="geometry" />
        </mxCell>
        <mxCell id="VmHKf9ybYTrdxQRz-RQ7-122" style="edgeStyle=orthogonalEdgeStyle;rounded=0;orthogonalLoop=1;jettySize=auto;html=1;entryX=0.5;entryY=0;entryDx=0;entryDy=0;" edge="1" parent="dNxyNK7c78bLwvsdeMH5-19" source="VmHKf9ybYTrdxQRz-RQ7-117" target="VmHKf9ybYTrdxQRz-RQ7-125">
          <mxGeometry relative="1" as="geometry">
            <mxPoint x="125" y="2170" as="targetPoint" />
          </mxGeometry>
        </mxCell>
        <mxCell id="VmHKf9ybYTrdxQRz-RQ7-129" style="edgeStyle=orthogonalEdgeStyle;rounded=0;orthogonalLoop=1;jettySize=auto;html=1;entryX=0.5;entryY=0;entryDx=0;entryDy=0;" edge="1" parent="dNxyNK7c78bLwvsdeMH5-19" source="VmHKf9ybYTrdxQRz-RQ7-125" target="VmHKf9ybYTrdxQRz-RQ7-128">
          <mxGeometry relative="1" as="geometry" />
        </mxCell>
        <mxCell id="VmHKf9ybYTrdxQRz-RQ7-143" style="edgeStyle=orthogonalEdgeStyle;rounded=0;orthogonalLoop=1;jettySize=auto;html=1;entryX=0.5;entryY=0;entryDx=0;entryDy=0;" edge="1" parent="dNxyNK7c78bLwvsdeMH5-19" source="VmHKf9ybYTrdxQRz-RQ7-134" target="VmHKf9ybYTrdxQRz-RQ7-142">
          <mxGeometry relative="1" as="geometry" />
        </mxCell>
        <mxCell id="VmHKf9ybYTrdxQRz-RQ7-178" style="edgeStyle=orthogonalEdgeStyle;rounded=0;orthogonalLoop=1;jettySize=auto;html=1;entryX=0.5;entryY=0;entryDx=0;entryDy=0;" edge="1" parent="dNxyNK7c78bLwvsdeMH5-19" source="VmHKf9ybYTrdxQRz-RQ7-174" target="VmHKf9ybYTrdxQRz-RQ7-183">
          <mxGeometry relative="1" as="geometry">
            <mxPoint x="125" y="3350" as="targetPoint" />
          </mxGeometry>
        </mxCell>
        <mxCell id="VmHKf9ybYTrdxQRz-RQ7-204" style="edgeStyle=orthogonalEdgeStyle;rounded=0;orthogonalLoop=1;jettySize=auto;html=1;entryX=0.5;entryY=0;entryDx=0;entryDy=0;" edge="1" parent="dNxyNK7c78bLwvsdeMH5-19" source="VmHKf9ybYTrdxQRz-RQ7-189" target="VmHKf9ybYTrdxQRz-RQ7-203">
          <mxGeometry relative="1" as="geometry" />
        </mxCell>
        <mxCell id="VmHKf9ybYTrdxQRz-RQ7-218" style="edgeStyle=orthogonalEdgeStyle;rounded=0;orthogonalLoop=1;jettySize=auto;html=1;entryX=0.5;entryY=0;entryDx=0;entryDy=0;" edge="1" parent="dNxyNK7c78bLwvsdeMH5-19" source="VmHKf9ybYTrdxQRz-RQ7-214" target="VmHKf9ybYTrdxQRz-RQ7-194">
          <mxGeometry relative="1" as="geometry" />
        </mxCell>
      </root>
    </mxGraphModel>
  </diagram>
</mxfile>
